<?xml version="1.0" encoding="UTF-8" standalone="no"?>
<!-- Created with Inkscape (http://www.inkscape.org/) -->

<svg
   version="1.1"
   id="svg2"
   width="5333.3335"
   height="5333.3335"
   viewBox="0 0 5333.3335 5333.3335"
   sodipodi:docname="astronaut.svg"
   inkscape:version="1.4 (e7c3feb100, 2024-10-09)"
   xmlns:inkscape="http://www.inkscape.org/namespaces/inkscape"
   xmlns:sodipodi="http://sodipodi.sourceforge.net/DTD/sodipodi-0.dtd"
   xmlns="http://www.w3.org/2000/svg"
   xmlns:svg="http://www.w3.org/2000/svg">
  <defs
     id="defs6">
    <clipPath
       clipPathUnits="userSpaceOnUse"
       id="clipPath224">
      <path
         d="m 16426.3,15781.9 c -306.1,0 -625.2,82.2 -962.4,244.2 -20.3,9.8 -40.6,19.8 -60.7,30.1 -1.8,0.9 -3.5,1.8 -5.3,2.7 -309,158.1 -598.6,375.5 -861.6,647 -239.9,247.6 -448.8,511.9 -643.9,778.7 -2.9,4.3 -5.9,8.5 -9.2,12.5 -10.9,15 -21.7,30 -32.6,44.9 301.5,25.1 563,129.4 783.5,267.4 461,-475.2 968.8,-887.5 1453.4,-984.4 71.1,-14.2 142.3,-21 212.9,-21 984.8,0 1888.7,1316.3 1737.1,2139.1 -162.5,881.9 -375,1056.9 -375,1056.9 0,0 -1510.2,10.7 -2674.1,631.8 429.6,-100.7 873.8,-152.8 1325.1,-152.8 127.6,0 255.8,4.2 384.4,12.6 588.7,38.5 1151.1,163.9 1675.1,362.6 133.2,-117.5 424.6,-408.5 618.1,-850.6 95.1,-217 154.2,-439.8 177.6,-667.8 44.8,-462.1 -48.1,-1019 -412.9,-1660.9 -3.4,-5.3 -6.5,-10.7 -9.3,-16.4 -0.7,-1.1 -1.2,-2 -1.8,-3.1 -34.5,-59.7 -70.9,-119.7 -109.4,-179.8 -6.5,-9.9 -13,-20 -19.5,-30.2 -0.5,-0.8 -1.1,-1.6 -1.6,-2.4 -227.5,-363 -454.9,-665.1 -685,-907.7 -13.4,-10.4 -25.4,-22.8 -35.4,-36.8 -162.2,-166.7 -325.8,-303.7 -492,-411.7 l -449.2,-219.6 c -171.7,-57 -346.8,-85.3 -526.3,-85.3"
         id="path222" />
    </clipPath>
  </defs>
  <sodipodi:namedview
     id="namedview4"
     pagecolor="#ffffff"
     bordercolor="#000000"
     borderopacity="0.25"
     inkscape:showpageshadow="2"
     inkscape:pageopacity="0.0"
     inkscape:pagecheckerboard="0"
     inkscape:deskcolor="#d1d1d1"
     inkscape:zoom="0.1505625"
     inkscape:cx="2663.3459"
     inkscape:cy="2666.6667"
     inkscape:window-width="1854"
     inkscape:window-height="1011"
     inkscape:window-x="0"
     inkscape:window-y="0"
     inkscape:window-maximized="1"
     inkscape:current-layer="g10" />
  <g
     id="g8"
     inkscape:groupmode="layer"
     inkscape:label="ink_ext_XXXXXX"
     transform="matrix(1.3333333,0,0,-1.3333333,0,5333.3333)">
    <g
       id="g10"
       transform="scale(0.1)">
      <path
         d="m 21593,4644.2 c -7227.7,0 -13086.83,353.9 -13086.83,790.4 0,186.2 1065.61,357.3 2848.93,492.4 5.2,-19.5 10.7,-39 16.6,-58.5 16.1,-53.5 39.3,-103.2 68.2,-148.2 v -0.1 c 0.1,-0.1 0.2,-0.2 0.3,-0.4 60.7,-94.4 147.2,-168.1 248.5,-212.8 71.3,-31.5 149.8,-48.6 231.9,-48.6 h 2908.2 c 38.9,-8.5 78.3,-12.7 117.6,-12.7 39.5,0 78.9,4.2 117.6,12.7 h 605.6 c 315.4,0 572.1,256.5 572.1,572 v 125.7 c 1074.2,29.1 2225.6,49.7 3430.1,60.4 96.2,-367.4 430.9,-629 815,-629 h 1574.9 c 30.4,-113.5 63,-219.3 97.8,-316.5 65.5,-183.5 210.5,-280.5 360,-292.5 0,0.1 -0.1,0.1 -0.1,0.2 10.2,-0.8 20.4,-1.2 30.6,-1.2 160.2,0 320.5,97.9 390.5,293.6 34.8,97.1 67.4,203 97.7,316.4 h 1483.2 c 375.6,0 704,250.1 808.3,604.8 1360.1,-24.4 2627.1,-61.8 3762.6,-109.9 254.7,-198.6 498.4,-378.8 727.1,-537.7 94.7,-65.7 204.6,-99 315.2,-99 88.4,0 177.2,21.3 258.7,64.3 183.6,96.8 296.7,285.7 295.3,492.9 2461.1,-143.7 3991.3,-345.2 3991.3,-568.3 0,-436.5 -5859.2,-790.4 -13086.9,-790.4"
         style="fill:#5f5f5f;fill-opacity:1;fill-rule:nonzero;stroke:none"
         id="path14" />
      <path
         d="m 19730.2,6819.1 101.5,-517.6 c 61.5,-313.1 336,-539 655.1,-539 h 4034.6 c 319.1,0 593.6,225.9 655,539 l 101.6,517.6 h -5547.8"
         style="fill:#a5a4a4;fill-opacity:1;fill-rule:nonzero;stroke:none"
         id="path16" />
      <path
         d="m 24521.4,5937.5 h -749.5 c 102.5,93.7 176.2,219.6 204.6,364 l 67.2,342.6 h 1021.6 l -60.6,-308.9 c -45.2,-230.5 -248.5,-397.7 -483.3,-397.7"
         style="fill:#89818c;fill-opacity:1;fill-rule:nonzero;stroke:none"
         id="path18" />
      <path
         d="m 20427.1,5941.1 c -208.9,25.6 -382.3,183.4 -423.6,394.1 l -60.6,308.9 h 216.4 l 67.2,-342.6 c 28,-142.5 100.2,-267 200.6,-360.4"
         style="fill:#dbdbdb;fill-opacity:1;fill-rule:nonzero;stroke:none"
         id="path20" />
      <path
         d="m 30513.5,6001.5 c 2,-306 -342.5,-487.5 -594,-313 -252.5,175 -585,420 -993.5,749 -1276,1029 -3104.5,499 -3104.5,499 l 1517,4241 c 145.5,-41 285.5,-87 419.5,-138.5 1760,-669 2578.5,-2202.5 2729.5,-4349 16,-223 24.5,-452.5 26,-688.5"
         style="fill:#e81818;fill-opacity:1;fill-rule:nonzero;stroke:none"
         id="path22" />
      <path
         d="m 19259.5,6936.5 c 0,0 -75.5,22 -206,48 -513,103 -1881.5,273 -2898.5,-547 -238.5,-192 -451,-355.5 -636.5,-493 -132.5,-98 -251.5,-183 -356.5,-256 -252,-174.5 -596.5,7 -594.5,313 18.5,2680 926.5,4543.5 3175,5176 l 1517,-4241"
         style="fill:#e81818;fill-opacity:1;fill-rule:nonzero;stroke:none"
         id="path24" />
      <path
         d="m 16453.4,10127.8 c 50.4,131.2 105.7,251.2 161.5,358.9 302.3,197.9 641.5,356.2 1018.5,475.7 11.5,-46.3 23.3,-92.9 35,-139.2 -469.2,-173 -872.4,-406.2 -1215,-695.4"
         style="fill:#f6a3a3;fill-opacity:1;fill-rule:nonzero;stroke:none"
         id="path26" />
      <path
         d="m 16241.6,6718.6 v 1298.6 c 269.8,322 580.3,618.4 874.9,892.3 490.3,455.8 657.3,956.2 696,1360.1 255.7,-957 546,-1916.9 870.3,-2875.2 21.8,-64.5 49.2,-126 81.5,-184 -174.2,22.7 -381.5,39.9 -608.8,39.9 -579.2,0 -1288.9,-112.1 -1913.9,-531.7"
         style="fill:#bc1923;fill-opacity:1;fill-rule:nonzero;stroke:none"
         id="path28" />
      <path
         d="m 27294.5,11000 c -298,-1194 -647.5,-2380 -1043,-3549.5 -128,-377.5 -483,-631.5 -881.5,-631.5 h -5640 c -398.5,0 -753.5,254 -881.5,631.5 -395.5,1169.5 -745,2355.5 -1043,3549.5 -1492.5,5975.5 -1708.5,12146.5 -75.5,17373.5 828.5,2651.5 2133,5060 3988.5,7077 448.5,487.5 1214.5,487.5 1663,0 1869.5,-2032.5 3180,-4462.5 4007,-7138.5 1613,-5213.5 1393,-11359.5 -94,-17312"
         style="fill:#ffffff;fill-opacity:1;fill-rule:nonzero;stroke:none"
         id="path30" />
      <path
         d="m 27294.5,11000 c -298,-1194 -647.5,-2380 -1043,-3549.5 -128,-377.5 -483,-631.5 -881.5,-631.5 h -5640 c -398.5,0 -753.5,254 -881.5,631.5 -395.5,1169.5 -745,2355.5 -1043,3549.5 h 9489"
         style="fill:#e81818;fill-opacity:1;fill-rule:nonzero;stroke:none"
         id="path32" />
      <path
         d="m 27388.5,28312 c -3040,-696.5 -6251.5,-696.5 -9634.5,0 l -24,61.5 c 828.5,2651.5 2133,5060 3988.5,7077 448.5,487.5 1214.5,487.5 1663,0 1869.5,-2032.5 3180,-4462.5 4007,-7138.5"
         style="fill:#e81818;fill-opacity:1;fill-rule:nonzero;stroke:none"
         id="path34" />
      <path
         d="m 27163.5,11175 h -1935.8 c 1699.8,5681.7 2211.2,11586 966.3,16723.7 363.6,59.9 724.6,129.5 1082.5,208.6 1462.1,-4801.4 1453.1,-10614.9 -87.8,-16839.1 -7.9,-13.2 -14.3,-27.6 -18.6,-43.1 -4.7,-16.7 -6.8,-33.6 -6.6,-50.1"
         style="fill:#cdc6d0;fill-opacity:1;fill-rule:nonzero;stroke:none"
         id="path36" />
      <path
         d="m 25369.8,6994.1 h -87.6 c -1.5,0 -3,0.1 -4.4,0.1 -1.5,0 -2.9,-0.1 -4.4,-0.1 h -2004.3 c 47.8,532.7 64.2,1108.4 45.3,1677.4 l 7.6,238 -33,254.4 c -31.3,443 -85.4,872.7 -164,1263.9 v 0.2 c 0,0 544,-897.3 935.2,-1550.9 46.7,-77.9 124.8,-115.2 202.7,-115.2 93.9,0 187.4,54.4 224.3,157.6 218.1,609.3 423.1,1222.8 613.8,1839.5 6.9,22.2 13.6,43.8 20.4,66 h 1955.2 c -283,-1094.7 -613.3,-2202.5 -990.9,-3318.4 -60.2,-177.9 -182.3,-321.9 -337.6,-411.4 -7.8,-3.6 -15.3,-7.8 -22.3,-12.4 -107.1,-57 -228.7,-88.7 -356,-88.7"
         style="fill:#bc1923;fill-opacity:1;fill-rule:nonzero;stroke:none"
         id="path38" />
      <path
         d="m 26108.6,28239.3 c -684.2,2640.6 -1842.2,5069.2 -3552.1,7150.2 -9.6,11.7 -19.5,23.1 -29.4,34.4 143.3,62.4 296.8,93.6 450.4,93.6 14.8,0 29.7,-0.3 44.6,-0.9 84.4,-48.3 162,-110.2 230.4,-184.6 1756,-1908.9 3065.7,-4239.6 3919,-6889.4 -351.4,-77.2 -705.8,-144.9 -1062.9,-203.3"
         style="fill:#bc1923;fill-opacity:1;fill-rule:nonzero;stroke:none"
         id="path40" />
      <path
         d="m 23392.5,17250 c -930.5,0 -1766,405.9 -2339.3,1050.5 449.6,-229.4 958.4,-358.8 1496.8,-358.8 1822.3,0 3304.9,1482.5 3304.9,3304.9 0,505.1 -113.9,984 -317.3,1412.6 606.2,-570.8 984.8,-1380.9 984.8,-2279.3 0,-1728.6 -1401.3,-3129.9 -3129.9,-3129.9"
         style="fill:#cdc6d0;fill-opacity:1;fill-rule:nonzero;stroke:none"
         id="path42" />
      <path
         d="m 25679.9,21246.6 c 0,-1728.6 -1401.3,-3129.9 -3129.9,-3129.9 -1728.6,0 -3129.9,1401.3 -3129.9,3129.9 0,1728.6 1401.3,3129.9 3129.9,3129.9 1728.6,0 3129.9,-1401.3 3129.9,-3129.9"
         style="fill:#e81818;fill-opacity:1;fill-rule:nonzero;stroke:none"
         id="path44" />
      <path
         d="m 22550,18291.7 c -379.4,0 -742.4,71.9 -1076,202.7 206.4,-42.9 420.1,-65.4 639,-65.4 1729,0 3130,1401.5 3130,3130 0,580.1 -157.7,1123.1 -432.6,1588.7 433.2,-514.2 694.5,-1177.7 694.5,-1901.1 0,-1629.4 -1325.5,-2954.9 -2954.9,-2954.9"
         style="fill:#bc1923;fill-opacity:1;fill-rule:nonzero;stroke:none"
         id="path46" />
      <path
         d="m 19671.9,21068.3 c -24.6,12.8 -49.1,25.3 -73.5,37.6 -2.2,46.6 -3.3,93.6 -3.3,140.7 0,86.3 3.7,171.7 11,256.1 43.1,29.9 86.1,60.6 128.3,91.5 -35.1,-170.6 -56.4,-346.3 -62.5,-525.9 m 4113.6,2862.4 c -309.9,102.7 -641.2,158.3 -985.5,158.3 -219.3,0 -433.3,-22.5 -639.9,-65.5 17.6,51.8 33.4,104.6 47.6,158.3 112.4,13 226.5,19.7 342.3,19.7 440.8,0 859.4,-97.1 1235.5,-270.8"
         style="fill:#f8b9b9;fill-opacity:1;fill-rule:nonzero;stroke:none"
         id="path48" />
      <path
         d="m 19279.8,7142.4 c -120.8,89.4 -215,214.9 -265.5,364.2 -377.6,1115.9 -707.9,2223.7 -990.9,3318.4 h 179.4 c 10.2,-41.2 20.4,-82.3 30.7,-123.5 298,-1194 647.5,-2380 1043,-3549.5 1.1,-3.2 2.2,-6.4 3.3,-9.6"
         style="fill:#f6a3a3;fill-opacity:1;fill-rule:nonzero;stroke:none"
         id="path50" />
      <path
         d="m 18118,11175 h -183.5 c -56.2,224.6 -110.6,450.2 -162.8,673.7 46.6,-3.7 92.7,-5.5 138.4,-5.5 18.1,0 36.2,0.3 54.2,0.8 49.4,-223.2 100.7,-446.2 153.7,-669"
         style="fill:#ffffff;fill-opacity:1;fill-rule:nonzero;stroke:none"
         id="path52" />
      <path
         d="m 19292.5,30942.8 c -97.8,58.4 -197.2,113.7 -297.9,166 761.1,1566.9 1712.9,2984 2852.9,4223.2 127.9,139.1 287.9,234.5 464.6,279.5 77.6,-52.1 149.9,-114.7 215,-187.6 -139.8,-61 -269.9,-151.6 -380.6,-271.9 -1160.9,-1262 -2106.1,-2677.1 -2854,-4209.2"
         style="fill:#f6a3a3;fill-opacity:1;fill-rule:nonzero;stroke:none"
         id="path54" />
      <path
         d="m 22527.1,35423.9 c -65.1,72.9 -137.4,135.5 -215,187.6 76.6,19.6 156.3,29.6 237.9,29.6 169.1,0 330.2,-43.1 472.1,-124.5 -14.9,0.6 -29.8,0.9 -44.6,0.9 -153.6,0 -307.1,-31.2 -450.4,-93.6"
         style="fill:#e4a3a7;fill-opacity:1;fill-rule:nonzero;stroke:none"
         id="path56" />
      <path
         d="m 22550,24201.5 c -1629.3,0 -2954.9,-1325.6 -2954.9,-2954.9 0,-1629.4 1325.6,-2954.9 2954.9,-2954.9 1629.4,0 2954.9,1325.5 2954.9,2954.9 0,1629.3 -1325.5,2954.9 -2954.9,2954.9 m 0,-6259.8 c -1822.3,0 -3304.9,1482.5 -3304.9,3304.9 0,1822.3 1482.6,3304.9 3304.9,3304.9 1822.3,0 3304.9,-1482.6 3304.9,-3304.9 0,-1822.4 -1482.6,-3304.9 -3304.9,-3304.9"
         style="fill:#371a45;fill-opacity:1;fill-rule:nonzero;stroke:none"
         id="path58" />
      <path
         d="m 22805,18943.1 c -54.5,0 -109,2 -162.5,6.5 -350.5,27 -676.5,141.5 -957,321 -109.5,70 -212,150.5 -306.5,239.5 -26.6,25.3 -52.6,51.3 -77.9,77.9 41.9,-31.6 85.1,-61.7 129.4,-90 v 0 c 280.5,-179.5 606.5,-294 957,-321 v 0 c 53.5,-4.5 108,-6.5 162.5,-6.5 1146.5,0 2076,929.5 2076,2076 0,223 -35,438 -100.5,639 -96.5,299.1 -259.4,568.8 -471.2,791.7 67,-50.4 130.9,-105 191.2,-163.1 243,-234.5 429,-527.5 535,-856 65.5,-201 100.5,-416 100.5,-639 0,-1146.5 -929.5,-2076 -2076,-2076"
         style="fill:#f8b9b9;fill-opacity:1;fill-rule:nonzero;stroke:none"
         id="path60" />
      <path
         d="m 24626,21246.5 c 0,-1146.5 -929.5,-2076 -2076,-2076 -54.5,0 -109,2 -162.5,6.5 -350.5,27 -676.5,141.5 -957,321 -109.5,70 -212,150.5 -306.5,239.5 -175,166 -321.5,361.5 -430.5,579 -140.5,279.5 -219.5,595.5 -219.5,930 0,1146.5 929.5,2076 2076,2076 163,0 321,-19 473,-54 239.5,-56 463.5,-153.5 663,-284.5 109,-71 211,-152.5 304.5,-242.5 243,-234.5 429,-527.5 535,-856 65.5,-201 100.5,-416 100.5,-639"
         style="fill:#10afff;fill-opacity:1;fill-rule:nonzero;stroke:none"
         id="path62" />
      <path
         d="m 20765.2,20185.5 c -25.6,42.8 -49.5,86.6 -71.7,131 22.3,-44.6 46.3,-88.3 71.7,-131 m -71.7,131 v 0 c -140.5,279.5 -219.5,595.5 -219.5,930 v 0 c 0,-334.5 79,-650.5 219.5,-930 v 0"
         style="fill:#bc1923;fill-opacity:1;fill-rule:nonzero;stroke:none"
         id="path64" />
      <path
         d="m 20693.5,20316.5 v 0 c -140.5,279.5 -219.5,595.5 -219.5,930 0,1146.5 929.5,2076 2076,2076 163,0 321,-19 473,-54 239.5,-56 463.5,-153.5 663,-284.5 109,-71 211,-152.5 304.5,-242.5 243,-234.5 429,-527.5 535,-856 4,-12.5 8,-25 11.5,-37.5 -6,9.7 -12.1,19.4 -18.2,29 l 6.7,8.5 c -106,328.5 -292,621.5 -535,856 L 23833,22542 c -113.6,68 -234.4,125.5 -360.8,171 l 213.8,271 c -199.5,131 -423.5,228.5 -663,284.5 l -343.6,-435.4 c -1104.8,-47.2 -1985.9,-957.8 -1985.9,-2074.1 0,-135 12.9,-267.1 37.6,-394.9 l -37.6,-47.6"
         style="fill:#1a8ad0;fill-opacity:1;fill-rule:nonzero;stroke:none"
         id="path66" />
      <path
         d="m 22387.5,19177 v 0 c -350.5,27 -676.5,141.5 -957,321 l 2402.5,3044 c 24.5,-14.7 48.7,-29.9 72.5,-45.5 109,-71 211,-152.5 304.5,-242.5 116.8,-112.6 220.6,-239.3 308.8,-377 l -2131.3,-2700"
         style="fill:#9fdfff;fill-opacity:1;fill-rule:nonzero;stroke:none"
         id="path68" />
      <path
         d="m 24518.8,21877 c -88.2,137.7 -192,264.4 -308.8,377 -93.5,90 -195.5,171.5 -304.5,242.5 -23.8,15.6 -48,30.8 -72.5,45.5 l 157.5,199.5 c 243,-234.5 429,-527.5 535,-856 l -6.7,-8.5"
         style="fill:#a3d0ec;fill-opacity:1;fill-rule:nonzero;stroke:none"
         id="path70" />
      <path
         d="m 21124,19737.5 v 0 c -139.1,132 -260.2,282.6 -358.8,448 5.5,-9.2 11.1,-18.4 16.8,-27.5 -20.4,67.3 -37.4,136.1 -50.9,206.1 l 1948.3,2469 c 29.8,1.3 59.9,1.9 90.1,1.9 163,0 321,-19 473,-54 78.3,-18.3 155,-41.1 229.7,-68 L 21124,19737.5"
         style="fill:#9fdfff;fill-opacity:1;fill-rule:nonzero;stroke:none"
         id="path72" />
      <path
         d="m 20782,20158 c -5.7,9.1 -11.3,18.3 -16.8,27.5 -25.4,42.7 -49.4,86.4 -71.7,131 l 37.6,47.6 c 13.5,-70 30.5,-138.8 50.9,-206.1 m 2690.2,2555 c -74.7,26.9 -151.4,49.7 -229.7,68 -152,35 -310,54 -473,54 -30.2,0 -60.3,-0.6 -90.1,-1.9 l 343.6,435.4 c 239.5,-56 463.5,-153.5 663,-284.5 l -213.8,-271"
         style="fill:#a3d0ec;fill-opacity:1;fill-rule:nonzero;stroke:none"
         id="path74" />
      <path
         d="m 22550,23172.6 c -1062,0 -1926,-864 -1926,-1926 0,-1062 864,-1926 1926,-1926 1062,0 1926,864 1926,1926 0,1062 -864,1926 -1926,1926 z m 0,-4152 c -1227.4,0 -2226,998.6 -2226,2226 0,1227.4 998.6,2226 2226,2226 1227.4,0 2226,-998.6 2226,-2226 0,-1227.4 -998.6,-2226 -2226,-2226"
         style="fill:#371a45;fill-opacity:1;fill-rule:nonzero;stroke:none"
         id="path76" />
      <path
         d="m 22550,35641.1 c -269.7,0 -519.2,-109.8 -702.5,-309.1 -5607,-6095.4 -6666.1,-16497.5 -2833.2,-27825.4 103.7,-306.5 391.4,-512.5 715.9,-512.5 h 5639.6 c 324.5,0 612.2,206 715.9,512.5 3832.9,11328 2773.8,21730 -2833.2,27825.4 -183.3,199.3 -432.8,309.1 -702.5,309.1 m 2819.8,-28997 h -5639.6 c -474.7,0 -895.6,301.5 -1047.4,750.3 -1775.7,5247.8 -2530.4,10528.2 -2182.5,15270.1 186.5,2541.2 690.2,4901.4 1497.3,7015.1 859.6,2251 2068.2,4232.5 3592.3,5889.4 246.8,268.2 596.7,422.1 960.1,422.1 v 0 c 363.4,0 713.3,-153.9 960.1,-422.1 1524.1,-1656.9 2732.8,-3638.4 3592.3,-5889.4 807.1,-2113.7 1310.8,-4473.9 1497.3,-7015.1 347.9,-4741.9 -406.8,-10022.3 -2182.5,-15270.1 -151.8,-448.8 -572.7,-750.3 -1047.4,-750.3"
         style="fill:#371a45;fill-opacity:1;fill-rule:nonzero;stroke:none"
         id="path78" />
      <path
         d="m 24521.4,5587.5 h -4034.6 c -401.8,0 -749.5,286.1 -826.8,680.3 l -101.5,517.6 c -18.6,94.8 43.1,186.8 138,205.4 94.6,18.9 186.8,-43.1 205.4,-138 l 101.6,-517.6 c 45.2,-230.5 248.4,-397.7 483.3,-397.7 h 4034.6 c 234.8,0 438.1,167.2 483.3,397.7 l 101.6,517.6 c 18.6,94.8 110.7,156.7 205.4,138 94.8,-18.6 156.6,-110.6 138,-205.4 l -101.5,-517.6 c -77.4,-394.2 -425.1,-680.3 -826.8,-680.3"
         style="fill:#371a45;fill-opacity:1;fill-rule:nonzero;stroke:none"
         id="path80" />
      <path
         d="m 27294.5,10825 h -9488.9 c -96.6,0 -175,78.4 -175,175 0,96.6 78.4,175 175,175 h 9488.9 c 96.6,0 175,-78.4 175,-175 0,-96.6 -78.4,-175 -175,-175"
         style="fill:#371a45;fill-opacity:1;fill-rule:nonzero;stroke:none"
         id="path82" />
      <path
         d="m 30134.6,5445.7 c -110.6,0 -220.5,33.3 -315.2,99 -310.1,215.4 -647.6,470 -1003,756.6 -1188.1,958.1 -2928.6,472 -2946.1,467 -92.9,-26.7 -189.8,26.8 -216.7,119.5 -26.8,92.8 26.6,189.7 119.3,216.7 78.3,22.7 1931.3,543.3 3263.2,-530.8 348.9,-281.4 679.7,-530.9 983,-741.5 63.4,-44.1 142.3,-48.8 211,-12.6 68.5,36.1 109,103.8 108.5,180.8 -19.1,2798.7 -1016,4437.1 -3047.5,5008.8 -93,26.2 -147.2,122.9 -121,215.9 26.1,93.1 122.8,147.1 215.8,121 1130.2,-318 1980.7,-957.6 2527.9,-1900.9 504.4,-869.7 765.1,-2027.8 774.8,-3442.3 1.4,-207.2 -111.7,-396.1 -295.3,-492.9 -81.5,-43 -170.3,-64.3 -258.7,-64.3"
         style="fill:#371a45;fill-opacity:1;fill-rule:nonzero;stroke:none"
         id="path84" />
      <path
         d="m 14946.4,5445.7 c -88.4,0 -177.1,21.3 -258.7,64.3 -183.6,96.8 -296.7,285.7 -295.3,492.9 9.7,1414.5 270.4,2572.6 774.9,3442.3 547.2,943.3 1397.6,1582.9 2527.8,1900.9 93,26.2 189.7,-27.9 215.8,-121 26.2,-93 -28,-189.7 -121,-215.9 -2031.5,-571.7 -3028.3,-2210.1 -3047.5,-5008.8 -0.5,-77 40,-144.7 108.6,-180.8 68.6,-36.2 147.4,-31.5 211,12.6 303.3,210.6 634,460.1 982.9,741.5 1331.9,1074 3185,553.4 3263.2,530.8 92.8,-27 146.2,-124 119.3,-216.8 -26.9,-92.9 -123.9,-146.5 -216.8,-119.4 -17.3,5 -1757.8,491.1 -2945.9,-467 -355.5,-286.6 -692.9,-541.2 -1003.1,-756.6 -94.6,-65.7 -204.6,-99 -315.2,-99"
         style="fill:#371a45;fill-opacity:1;fill-rule:nonzero;stroke:none"
         id="path86" />
      <path
         d="m 22699.4,27617 c -1621.4,0 -3285.3,174.5 -4980.6,523.5 -94.7,19.5 -155.6,112 -136.2,206.7 19.6,94.7 112.3,155.4 206.7,136.1 3342.6,-688.1 6559.1,-688.4 9560.3,-0.8 94.2,21.6 188.1,-37.3 209.7,-131.5 21.6,-94.2 -37.3,-188.1 -131.5,-209.7 C 25902,27791.8 24322,27617 22699.4,27617"
         style="fill:#371a45;fill-opacity:1;fill-rule:nonzero;stroke:none"
         id="path88" />
      <path
         d="m 22940.5,5271.1 c 472.8,1321.1 545.2,4259.3 -4.8,5877.2 -134,394.3 -637.4,394.3 -771.4,0 -550,-1617.9 -477.6,-4556.1 -4.8,-5877.2 140.1,-391.5 640.9,-391.5 781,0"
         style="fill:#e81818;fill-opacity:1;fill-rule:nonzero;stroke:none"
         id="path90" />
      <path
         d="m 22519.5,4978.5 c -149.5,12 -294.5,109 -360,292.5 -34.8,97.2 -67.4,203 -97.8,316.5 h 0.1 c 30.3,-113.4 62.9,-219.3 97.7,-316.4 65.5,-183.2 210.2,-280.7 359.9,-292.4 0,-0.1 0.1,-0.1 0.1,-0.2"
         style="fill:#d0cde9;fill-opacity:1;fill-rule:nonzero;stroke:none"
         id="path92" />
      <path
         d="m 21980,5937.5 v 0 c -44.6,218.4 -82.2,456 -112.5,706.6 h 0.1 c 30.3,-250.7 67.9,-488.1 112.4,-706.6"
         style="fill:#dbdbdb;fill-opacity:1;fill-rule:nonzero;stroke:none"
         id="path94" />
      <path
         d="m 21830.9,6994.1 v 0 c -17.9,199.1 -31.4,404.2 -40.2,612.8 8.8,-208.7 22.3,-413.6 40.2,-612.8"
         style="fill:#f6a3a3;fill-opacity:1;fill-rule:nonzero;stroke:none"
         id="path96" />
      <path
         d="m 22297.7,11350.5 c 73.1,62.4 162.7,93.6 252.2,93.6 57.8,0 115.5,-13 168.8,-38.9 -53.3,25.9 -111,38.8 -168.7,38.8 -89.6,0 -179.2,-31.2 -252.3,-93.5"
         style="fill:#ffffff;fill-opacity:1;fill-rule:nonzero;stroke:none"
         id="path98" />
      <path
         d="m 21867.6,6644.1 h -0.1 c -13.7,114.2 -26,230.9 -36.6,350 v 0 c 10.7,-119 22.9,-235.9 36.7,-350"
         style="fill:#afa3b5;fill-opacity:1;fill-rule:nonzero;stroke:none"
         id="path100" />
      <path
         d="m 22061.8,5587.5 h -0.1 c -29.4,109.9 -56.7,226.9 -81.7,350 v 0 c 25.1,-123 52.4,-240.1 81.8,-350"
         style="fill:#afa3b5;fill-opacity:1;fill-rule:nonzero;stroke:none"
         id="path102" />
      <path
         d="m 22519.4,4978.7 c -149.7,11.7 -294.4,109.2 -359.9,292.4 -34.8,97.1 -67.4,203 -97.7,316.4 -29.4,109.9 -56.7,227 -81.8,350 -44.5,218.5 -82.1,455.9 -112.4,706.6 -13.8,114.1 -26,231 -36.7,350 -17.9,199.2 -31.4,404.1 -40.2,612.8 -53,1244.8 57.6,2611.4 373.8,3541.6 29.3,86.2 76.3,153.5 133.2,202 73.1,62.3 162.7,93.5 252.3,93.5 57.7,0 115.4,-12.9 168.7,-38.8 71.6,-34.8 135.3,-93 180.3,-174.7 -8.8,0.6 -17.6,0.9 -26.3,0.9 -159.1,0 -318.4,-98.7 -385.2,-295.4 -550,-1618 -477.5,-4556.5 -5,-5877.5 10.5,-28.9 22.4,-55.3 36.9,-79.8"
         style="fill:#f6a3a3;fill-opacity:1;fill-rule:nonzero;stroke:none"
         id="path104" />
      <path
         d="m 22550,11269 c -100.1,0 -182.3,-66.2 -220,-177 -542.5,-1595.9 -456.6,-4502.1 -5.8,-5761.9 39.8,-111.2 124.2,-177.6 225.8,-177.6 101.6,0 186,66.4 225.8,177.6 v 0 c 450.8,1259.8 536.7,4166 -5.8,5761.8 -37.6,110.9 -119.9,177.1 -220,177.1 z m 0,-6466.5 c -248.3,0 -466.3,160.8 -555.3,409.7 -472.3,1319.7 -575.8,4287 3.9,5992.4 85.6,251.7 302,414.4 551.4,414.4 249.4,0 465.8,-162.7 551.4,-414.4 579.8,-1705.4 476.2,-4672.7 3.9,-5992.4 -89.1,-248.9 -307,-409.7 -555.3,-409.7"
         style="fill:#371a45;fill-opacity:1;fill-rule:nonzero;stroke:none"
         id="path106" />
      <path
         d="m 23925,6787.5 -261.5,31.5 h 274.5 c -8.5,-20.5 -13,-31.5 -13,-31.5"
         style="fill:#371a45;fill-opacity:1;fill-rule:nonzero;stroke:none"
         id="path108" />
      <path
         d="m 17756,10991.5 -20.5,68.5 c 4,-10.5 11.5,-34 20.5,-68.5"
         style="fill:#ffffff;fill-opacity:1;fill-rule:nonzero;stroke:none"
         id="path110" />
      <path
         d="m 30134.3,5795.4 c -40.2,0 -80.1,12.4 -115.2,36.8 -303.3,210.6 -634.1,460.1 -983,741.5 -669.1,539.5 -1469.6,676.7 -2110.6,676.7 -218.5,0 -418.4,-16 -588.3,-37.3 31.6,57.2 58.5,117.7 80,181.3 402,1188 751.6,2377.7 1048,3562.4 79.4,-25.5 157.1,-52.7 233.2,-81.7 -123.3,-342.2 -365.5,-1344.7 469.1,-2476.1 799.3,-1083 1751.4,-1513.4 2140.7,-1652.6 18.5,-238.9 28.6,-487.3 30.4,-746 0.5,-77 -40,-144.7 -108.5,-180.8 -30.7,-16.2 -63.3,-24.2 -95.8,-24.2"
         style="fill:#bc1923;fill-opacity:1;fill-rule:nonzero;stroke:none"
         id="path112" />
      <path
         d="m 25991.5,7156.5 c 520,768.4 848.6,2171.6 1251.1,3668.5 h 51.9 c 81.8,0 150.6,56.2 169.7,132.2 0.3,-0.2 0.7,-0.3 1,-0.4 -296.4,-1184.7 -646,-2374.4 -1048,-3562.4 -21.5,-63.6 -48.4,-124.1 -80,-181.3 -136.7,-17.2 -253.9,-37.9 -345.7,-56.6"
         style="fill:#371a45;fill-opacity:1;fill-rule:nonzero;stroke:none"
         id="path114" />
      <path
         d="m 27294.5,10825 h -51.9 c 16.5,61.2 33,122.4 49.7,183.9 58.2,-16.4 115.4,-33.6 171.9,-51.7 -19.1,-76 -87.9,-132.2 -169.7,-132.2"
         style="fill:#371a45;fill-opacity:1;fill-rule:nonzero;stroke:none"
         id="path116" />
      <path
         d="m 30133.7,5620.5 c -72.4,0 -146.7,21.1 -214.2,68 -252.5,175 -585,420 -993.5,749 -628.5,506.8 -1391.1,635.5 -2003.2,635.5 -630.6,0 -1101.3,-136.5 -1101.3,-136.5 59,66 115.5,139.4 170,220 91.8,18.7 209,39.4 345.7,56.6 169.9,21.3 369.8,37.3 588.3,37.3 641,0 1441.5,-137.2 2110.6,-676.7 348.9,-281.4 679.7,-530.9 983,-741.5 35.1,-24.4 75,-36.8 115.2,-36.8 32.5,0 65.1,8 95.8,24.2 68.5,36.1 109,103.8 108.5,180.8 -1.8,258.7 -11.9,507.1 -30.4,746 113.6,-40.6 179.3,-56.4 179.3,-56.4 16,-223 24.5,-452.5 26,-688.5 1.5,-223.8 -182.5,-381 -379.8,-381 m -2435.3,5254.6 c -76.1,29 -153.8,56.2 -233.2,81.7 -0.3,0.1 -0.7,0.2 -1,0.4 -56.5,18.1 -113.7,35.3 -171.9,51.7 15.3,56.1 30.7,112.3 46.2,168.6 145.5,-41 285.5,-87 419.5,-138.5 l -8,-39 c 0,0 -22.5,-44 -51.6,-124.9"
         style="fill:#371a45;fill-opacity:1;fill-rule:nonzero;stroke:none"
         id="path118" />
      <path
         d="m 20606.5,19779.5 -116,-2136.5 -3,-55.5 -344,-1656.5 -370,-1780 -23.5,-113.5 c 0,0 -470.5,-2306 -2149.5,-1989 -24.5,4 -49,9.5 -73.5,15 l -35.5,78.5 -6,13 -479.5,1061.5 c -127,33.5 860.5,7439.5 860.5,7439.5 l 968.5,590.5 c 451,-162 906.5,-394.5 1366,-684.5 267,-168.5 422.5,-467.5 405.5,-782.5"
         style="fill:#ffffff;fill-opacity:1;fill-rule:nonzero;stroke:none"
         id="path120" />
      <path
         d="m 20606.5,19779.5 h 0.5 -0.5 M 17051,13385.6 h 0.1 -0.1 m 598.4,-1168.2 c 610.1,-107 1113.9,159.2 1501.9,791 309.7,504.4 426.1,1058.7 427.3,1064.2 l 734.9,3537.6 118.2,2178.7 c 13.6,250.9 -110.6,490.4 -324.1,625.1 -433.8,273.8 -855.1,488.5 -1253.7,639 l -825,-502.9 c -365.5,-2746.1 -882.3,-6843.5 -859.4,-7270.4 l 479.9,-1062.3 m 260.8,-373.9 c -111.3,0 -225.4,11 -342.2,33 -22.9,3.7 -50,9.7 -77.1,15.7 -53.7,12.1 -100.7,49.1 -123.3,99.2 l -504.1,1115.5 c -58.6,76.3 -48.4,217.6 -31.5,451.5 14.2,197 41.4,484.1 80.9,853.3 66.2,619.4 167.8,1480.3 302.1,2558.7 228.4,1835.2 475.6,3690.2 478,3708.7 7,52.4 37.3,98.8 82.4,126.3 l 968.5,590.5 c 45.2,27.5 100.4,33.2 150.2,15.3 445.5,-160 916.6,-395.9 1400.3,-701.2 320.7,-202.4 507.2,-562.5 486.9,-939.9 l -0.1,-0.1 -119,-2192 c -0.4,-8.8 -1.6,-17.4 -3.4,-26.1 l -737.4,-3549.8 c -5,-24.4 -127.6,-612.5 -467.1,-1169.1 -398,-652.4 -927,-989.5 -1544.1,-989.5"
         style="fill:#371a45;fill-opacity:1;fill-rule:nonzero;stroke:none"
         id="path122" />
      <path
         d="m 20487.5,17587.5 h 0.5 -0.5 m -2577.4,-5744.3 c -136.8,0 -277.7,16.5 -422.5,49.8 -94.2,21.6 -153,115.5 -131.4,209.6 21.6,94.3 115.4,153.2 209.7,131.5 376.2,-86.2 716.6,-33.8 1012,156 745.7,479.2 998.2,1670.5 1000.7,1682.5 l 734.9,3537.6 118.3,2178.9 c 13.6,250.7 -110.5,490.2 -324,625 -462.2,291.6 -910.4,516.4 -1332.1,667.8 -91,32.7 -138.2,132.9 -105.6,223.8 32.7,91 132.9,138.4 223.9,105.6 445.6,-160 916.9,-396 1400.6,-701.3 320.7,-202.4 507.1,-562.5 486.7,-939.9 L 20662.2,17578 c -0.4,-8.8 -1.6,-17.5 -3.4,-26.1 l -737.5,-3550 c -11,-54 -283,-1345.3 -1153,-1905.4 -261.9,-168.7 -549.3,-253.3 -858.2,-253.3"
         style="fill:#371a45;fill-opacity:1;fill-rule:nonzero;stroke:none"
         id="path124" />
      <path
         d="m 19234.5,19680.9 c -42.5,0 -85,15.4 -118.7,46.5 -71,65.5 -75.3,176.2 -9.8,247.2 411.9,445.9 1382.8,297.6 1492.1,279.2 95.3,-16 159.6,-106.3 143.6,-201.6 -16,-95.3 -106.1,-159.3 -201.5,-143.6 -229,38.2 -936.9,88.5 -1177.1,-171.5 -34.5,-37.3 -81.4,-56.2 -128.6,-56.2"
         style="fill:#371a45;fill-opacity:1;fill-rule:nonzero;stroke:none"
         id="path126" />
      <path
         d="m 18786.5,17387 c -8,-12 -16,-24.5 -24,-37 0,0 -62.5,-4300 -1862.5,-6125 0,0 -866.5,-925 -833.5,-2291.5 v -2903 c 0,-219.5 -177.5,-397 -397,-397 h -3749 c -176,0 -330.5,116.5 -381,285.5 -32,105.5 -52.5,208.5 -63.5,308 -86.5,796.5 471.5,1376.5 1124,1473 0,0 -100,1066.5 -50,2225 -3583.5,8.5 -4337.5,2912.5 -2550,5358.5 0,0 108.5,808 250,1516.5 -2025,1612.5 385.5,4552 2432.5,5194 l 5723.5,-940 c 0,0 1849,-1364.5 380.5,-3667"
         style="fill:#ffffff;fill-opacity:1;fill-rule:nonzero;stroke:none"
         id="path128" />
      <path
         d="m 18786.5,17387 h 0.5 -0.5 m -6090.7,4427.5 c -1250,-410 -2742.52,-1755.3 -2999.75,-3135.3 -130.79,-701.6 92.27,-1287.8 662.95,-1742.3 51.3,-40.8 75.5,-106.9 62.6,-171.2 -138.7,-694.6 -247.1,-1497.5 -248.2,-1505.5 -3.8,-28.9 -14.9,-56.4 -32.1,-80 -897.15,-1227.6 -1140.05,-2611.3 -633.88,-3611 477.86,-944 1558.58,-1465.7 3042.98,-1469.2 47.7,-0.1 93.2,-19.6 126.1,-54.1 33,-34.5 50.4,-80.9 48.3,-128.5 -48.9,-1133.4 48.4,-2190.5 49.4,-2201 8.7,-92.7 -56.6,-175.9 -148.6,-189.5 -531.8,-78.7 -1054.5,-554.3 -975.6,-1281 10.1,-91.9 29.3,-185 57,-276.1 28.9,-96.7 114.6,-161.3 213.5,-161.3 h 3749 c 122.4,0 222,99.6 222,222 v 2903 c -34.3,1417.5 843.4,2371.2 880.8,2411.1 1733.7,1757.9 1814.6,5965.7 1815.2,6007.9 0.5,32.6 10,64.3 27.5,91.7 8.3,12.9 16.6,25.9 24.9,38.3 1270.4,1993.7 -71.2,3214.5 -306.5,3406.1 l -5637.6,925.9 m 2973.7,-16356 h -3749 c -254.8,0 -475.3,164.9 -548.7,410.4 -33.7,111 -57.2,225.3 -69.7,338.9 -94.6,870.9 477.6,1464.6 1111,1632.1 -23.6,318.3 -69.9,1082 -44.5,1913 -1530.4,45.9 -2653.36,630.9 -3173.43,1658.1 -569.43,1124.8 -330.79,2594.8 637.43,3939.7 23.46,169.1 112.87,796.4 225.7,1381 -609.96,526.1 -854,1219.4 -706.34,2011.6 282.99,1518.1 1923.54,2992.8 3278.14,3417.7 26.1,8.1 53.7,10.2 80.8,5.7 l 5723.5,-940 c 27.3,-4.5 53.2,-15.4 75.5,-31.9 20.4,-15 502.9,-376.3 797,-1040 271.4,-612.4 427.2,-1605 -370.5,-2858.2 -13,-516.4 -168.9,-4427.4 -1911.8,-6194.5 -4.8,-5.3 -813.9,-890 -783.1,-2164.3 V 6030.5 c 0,-315.4 -256.6,-572 -572,-572"
         style="fill:#371a45;fill-opacity:1;fill-rule:nonzero;stroke:none"
         id="path130" />
      <path
         d="m 14257.5,16749 c -129.5,-82 -216,-235.5 -216,-411.5 0,-262.5 193,-475 431.5,-475 186.5,0 345.5,130.5 405.5,313 l -621,573.5"
         style="fill:#10afff;fill-opacity:1;fill-rule:nonzero;stroke:none"
         id="path132" />
      <path
         d="m 20793.5,16791.5 c -32.5,-130 -77.5,-308 -130,-510.5 -138.5,-539.5 -324,-1251 -437,-1684.5 -58.5,-223 -233.5,-393 -453,-445.5 -27,-6.5 -55,-11 -83.5,-14 -361.5,-35.5 -883,-23.5 -1306,243.5 l 25,155.5 385,2371.5 86.5,535 22.5,137.5 230.5,9 h 0.5 l 1356.5,54 244,-425 c 74,-129 95.5,-282 59,-426.5"
         style="fill:#ffffff;fill-opacity:1;fill-rule:nonzero;stroke:none"
         id="path134" />
      <path
         d="m 18576,14472.3 c 361.2,-184.7 789.4,-191.3 1096.9,-161.1 21.1,2.2 41.6,5.6 59.7,10 158.5,37.9 282.8,160.4 324.6,319.7 113.5,435.3 298.6,1145.2 436.8,1683.6 52.4,202.3 97.3,379.8 129.7,509.4 l 0.1,0.5 c 25.4,100.7 10.8,205.9 -41.1,296.5 l -191.2,333 -1250.5,-49.7 c -0.9,-0.1 -1.8,-0.1 -2.7,-0.1 l -85.7,-3.4 -476.6,-2938.4 m 826.5,-524.6 c -348.7,0 -759.2,62.1 -1111.9,284.8 -59.3,37.4 -90.5,106.6 -79.4,175.8 l 25,155.5 494.1,3044.5 c 13.4,82 82.8,143.3 165.8,146.5 l 230.5,9.1 2.6,0.1 1354.4,53.8 c 65.5,2.5 126.2,-31.2 158.7,-87.7 l 244,-425 c 97.3,-169.7 124.6,-367.3 76.9,-556.4 -32.6,-130.4 -77.7,-308.8 -130.3,-511.6 -138.2,-538.5 -323.4,-1248.8 -436.5,-1682.7 -75.2,-286.7 -298.1,-505.6 -582.2,-573.6 -32.8,-7.9 -68.5,-13.9 -106,-17.9 -93.4,-9.1 -196.6,-15.2 -305.7,-15.2"
         style="fill:#371a45;fill-opacity:1;fill-rule:nonzero;stroke:none"
         id="path136" />
      <path
         d="m 12695.7,21814.7 c -1250,-410.2 -2742.59,-1755.7 -2999.72,-3135.6 -130.72,-701.6 92.36,-1287.7 663.02,-1742.2 51.3,-40.8 75.5,-106.9 62.6,-171.2 -138.9,-694.5 -247.1,-1497.6 -248.1,-1505.6 -3.9,-28.9 -15,-56.4 -32.2,-80 -897.1,-1227.6 -1139.92,-2611.3 -633.72,-3611 477.87,-943.9 1558.52,-1465.6 3042.82,-1469.1 47.7,-0.1 93.2,-19.6 126.1,-54.1 33,-34.5 50.4,-80.9 48.3,-128.5 -48.9,-1133.2 48.4,-2190.5 49.4,-2201 8.7,-92.7 -56.5,-175.9 -148.6,-189.5 -334.9,-49.6 -629.6,-239.6 -808.3,-521.2 -130.8,-206 -256.1,-553 -110.5,-1036.2 29.1,-96.4 115,-161.1 213.8,-161.1 h 3749 c 122.4,0 222.1,99.6 222.1,222 v 2903 c -34.7,1417.6 843.2,2371.3 880.6,2411.2 1733.7,1757.9 1814.6,5965.7 1815.2,6007.9 0.5,33.1 10.3,65.3 28.3,92.9 593.1,911.7 719.4,1772.4 375.3,2558.2 -216.3,494.2 -555.1,799.7 -658.2,884.9 l -5637.2,926.2 M 15669.6,5458.4 h -3749 c -254.4,0 -475,164.8 -548.9,410.1 -143.4,475.9 -90.1,946.4 150.1,1324.8 204,321.4 523,551.2 891.3,647 -23.7,318.5 -69.9,1082.2 -44.5,1912.6 -1530.2,45.9 -2653.21,630.9 -3173.28,1658 -569.48,1124.8 -330.91,2594.8 637.28,3939.7 23.44,169.1 112.72,796.6 225.6,1381.1 -609.79,526.1 -853.9,1219.4 -706.29,2011.5 282.86,1518 1923.39,2992.9 3278.19,3418 26.1,8.1 53.7,10.1 80.7,5.7 l 5723.6,-940.4 c 27.3,-4.4 53.2,-15.4 75.5,-31.8 20.7,-15.2 508.3,-380.2 801.9,-1050.7 268,-612.2 417.9,-1600.6 -375.4,-2847.1 -12.9,-515.2 -168.6,-4427.4 -1911.8,-6194.8 -4.9,-5.3 -814.1,-889.9 -783,-2164.5 l 0.1,-2907.2 c 0,-315.5 -256.7,-572 -572.1,-572"
         style="fill:#371a45;fill-opacity:1;fill-rule:nonzero;stroke:none"
         id="path138" />
      <path
         d="m 15930.1,15367.4 c 0,0 1734.2,-357.6 2643.7,0 392.9,242.1 433.1,850.3 125.9,997.7 0,0 -376.7,-46.2 -663.2,31.9 l -2106.4,-1029.6"
         style="fill:#ffffff;fill-opacity:1;fill-rule:nonzero;stroke:none"
         id="path140" />
      <path
         d="m 17478.5,15033.3 c -781.4,0 -1536,152.8 -1583.8,162.7 -94.6,19.5 -155.5,112.1 -136,206.7 19.5,94.7 112.2,155.6 206.7,136.1 16.8,-3.4 1674.3,-338.9 2529.1,-14.4 171.9,113.4 241,317.6 232.8,473 -4.3,82.8 -30.2,149.9 -71,187.7 -128.1,-10.3 -421.4,-23.6 -665.8,43 -93.3,25.5 -148.3,121.7 -122.9,214.9 25.4,93.3 121.6,148.2 214.9,122.8 248.9,-67.8 592.6,-27.5 596.1,-27 33,4 66.8,-1.5 96.8,-15.9 176.5,-84.8 289.2,-274.4 301.4,-507.2 16.8,-320 -144.6,-633 -411.2,-797.3 -8.8,-5.4 -18.1,-10.1 -27.8,-13.8 -327.1,-128.7 -747,-171.3 -1159.3,-171.3"
         style="fill:#371a45;fill-opacity:1;fill-rule:nonzero;stroke:none"
         id="path142" />
      <path
         d="m 21864.4,26476.5 c 196.9,-3008.7 -2121.4,-5610.2 -5177.9,-5810.3 -1946.8,-127.5 -3723.5,750.2 -4807.8,2181.7 -1.4,2 -8,10.2 -18.9,24.6 -607.3,811.7 -993.3,1798.6 -1064.1,2879.5 -90.2,1378.6 347.4,2671.2 1141.4,3686.9 l 1.6,1.8 c 940,1200.7 2378.9,2013.7 4034.5,2122.1 3056.5,200 5694.2,-2077 5891.2,-5086.3"
         style="fill:#ffffff;fill-opacity:1;fill-rule:nonzero;stroke:none"
         id="path144" />
      <path
         d="m 20326.9,26212.6 -747.6,-2850.8 c -1703.2,-2106.4 -5886.1,-2272.5 -7700.1,-514.3 l -0.5,0.4 c -1.4,2 -8,10.2 -18.9,24.6 -607.3,811.7 -993.3,1798.6 -1064.1,2879.5 -90.2,1378.6 347.4,2671.2 1141.4,3686.9 l 1.6,1.8 c 1825.2,2171 7674,1387.1 8388.2,-3228.1"
         style="fill:#371a45;fill-opacity:1;fill-rule:nonzero;stroke:none"
         id="path146" />
      <path
         d="m 15386.8,21732.1 c -1234.6,0 -2407.2,368.9 -3199.2,1009.2 -58,69 -114.6,139.9 -169.4,212.2 -1.7,2.3 -3.8,5 -6.2,8.2 l -12.1,15.7 c -452.7,605 -765.8,1294.4 -923.3,2024.9 842.7,-979.7 2090,-1592.4 3462.2,-1592.4 100.4,0 201.4,3.3 303,9.9 2518,164.8 4425.8,2339.9 4260.9,4857.9 -9.4,145.1 -25.7,288 -48.3,428.7 516.6,-579.6 946.8,-1356.5 1129.4,-2394 -95.9,-46.4 -188.9,-103.8 -277.9,-172 -351.4,-269.3 -613.2,-684.5 -737.1,-1169.1 -123.4,-482.7 -90.5,-965.8 92.6,-1360.3 13.8,-29.6 28.3,-58.6 43.6,-87 -493.2,-586.7 -1109.5,-1072.4 -1812.9,-1416.4 -508.2,-192.2 -1061,-314.6 -1640.5,-358.1 -155.6,-11.7 -310.6,-17.4 -464.8,-17.4 m 1914.4,2030.5 c -160.4,0 -344.1,-121.4 -521.5,-296.9 -263.1,-260.3 -413,-541.3 -218.3,-738 79.7,-80.6 189,-119.5 308.4,-119.5 172.1,0 365,80.9 520.4,234.5 263,260.3 318.5,630.8 123.8,827.6 -63.3,64 -135.4,92.3 -212.8,92.3 m 1037.2,1175 c -149.2,0 -310.7,-65.6 -438.7,-192.2 -227,-224.7 -263.1,-556.3 -80.6,-740.7 79.5,-80.4 187.5,-119.6 302.8,-119.6 149.1,0 310.6,65.6 438.7,192.3 227,224.6 263,556.2 80.6,740.7 -79.6,80.4 -187.5,119.5 -302.8,119.5"
         style="fill:#1c1a31;fill-opacity:1;fill-rule:nonzero;stroke:none"
         id="path148" />
      <path
         d="m 12018.2,22953.5 c 1092.5,-1442.3 2833.5,-2232.1 4656.8,-2112.7 2955.3,193.5 5204.8,2716.7 5014.7,5624.3 -92.2,1408.2 -736,2695.8 -1813,3625.6 -1077.7,930.4 -2459.7,1391.3 -3892.1,1297.4 -1540,-100.8 -2964.4,-849.9 -3908.1,-2055.3 -1.4,-1.8 -2.8,-3.5 -4.3,-5.3 -794.4,-1018 -1185.7,-2283.5 -1101.9,-3564.1 66.2,-1010.9 422.3,-1974.3 1029.6,-2786 l 12.1,-15.7 c 2.4,-3.2 4.5,-5.9 6.2,-8.2 M 16313.5,20479 c -1799.4,0 -3487.7,828.6 -4574.3,2263.2 l -1.7,2.3 -17.3,22.5 c -648.6,866.8 -1028.5,1894.8 -1099.1,2973.6 -89.5,1367.9 328.9,2719.6 1178.2,3806.1 1.4,1.9 3,3.7 4.5,5.5 1005,1281.7 2520.2,2078 4157.9,2185.2 1524.6,99.8 2996,-390.9 4143.7,-1381.8 1148.5,-991.5 1835.2,-2365.1 1933.6,-3867.6 202.9,-3100.4 -2193.1,-5790.4 -5341.1,-5996.4 -128.6,-8.4 -256.8,-12.6 -384.4,-12.6"
         style="fill:#371a45;fill-opacity:1;fill-rule:nonzero;stroke:none"
         id="path150" />
      <path
         d="m 16313.8,20829 c -1223.1,0 -2391.4,407.4 -3330.3,1142.9 709,-316.2 1544,-489.6 2406.2,-489.6 159.5,0 319.9,5.9 480.6,17.9 1483.7,111.4 2803.1,720.7 3680.6,1687.9 184.2,-188.9 416.4,-323.4 681.9,-391.3 77.9,-19.9 156,-33.3 233.9,-40.4 -911.2,-1085.6 -2256.1,-1815.1 -3791.7,-1915.6 -120.8,-7.9 -241.3,-11.8 -361.2,-11.8"
         style="fill:#cdc6d0;fill-opacity:1;fill-rule:nonzero;stroke:none"
         id="path152" />
      <path
         d="m 17492.1,22107.6 c 703.4,344 1319.7,829.7 1812.9,1416.4 26.3,-48.7 54.9,-95.5 85.6,-140.3 -497.1,-557.7 -1149.2,-992.8 -1898.5,-1276.1"
         style="fill:#231a36;fill-opacity:1;fill-rule:nonzero;stroke:none"
         id="path154" />
      <path
         d="m 21700.9,26139.9 c -157.3,127.9 -340.8,220.7 -543.9,272.6 -117.1,29.9 -234.9,44.7 -352,44.7 -85.6,0 -170.7,-7.9 -254.8,-23.6 32.3,303.2 39.2,613.1 18.6,927.5 -80.3,1227.7 -566.9,2333.3 -1322.3,3198.8 219.5,-139.9 430.1,-296.5 630.2,-469.2 1077,-929.8 1720.8,-2217.4 1813,-3625.6 7.1,-108.9 10.8,-217.5 11.2,-325.2"
         style="fill:#cdc6d0;fill-opacity:1;fill-rule:nonzero;stroke:none"
         id="path156" />
      <path
         d="m 16461.2,20660.9 c -349.8,0 -708.4,32.4 -1074.8,94.1 -1013.4,204.3 -1938.2,707.6 -2689.8,1356.4 93.1,-49.2 188.8,-95.7 286.9,-139.5 938.9,-735.5 2107.2,-1142.9 3330.3,-1142.9 119.9,0 240.4,3.9 361.2,11.8 1535.6,100.5 2880.5,830 3791.7,1915.6 43.8,-4 87.5,-6 131,-6 32.2,0 64.2,1.1 96.2,3.2 -592.4,-744.2 -1377.8,-1336.5 -2287.9,-1699.8 0,0.1 0,0.1 0,0.1 -0.6,-0.3 -1.2,-0.6 -1.8,-0.8 -534.4,-213.1 -1111.4,-347.2 -1717.7,-386.9 -10.1,-0.7 -20.1,-1.3 -30.2,-1.9 -64.7,-2.3 -129.7,-3.4 -195.1,-3.4 m 5412.8,5311.9 c -53.4,60.9 -111.2,116.7 -173.1,167.1 -0.4,107.7 -4.1,216.3 -11.2,325.2 -92.2,1408.2 -736,2695.8 -1813,3625.6 -200.1,172.7 -410.7,329.3 -630.2,469.2 -135.7,155.4 -280,303.1 -432.3,442.4 1702.5,-838.1 2918.8,-2519.2 3050.2,-4525.8 11,-169.3 14.2,-337.3 9.6,-503.7"
         style="fill:#371a45;fill-opacity:1;fill-rule:nonzero;stroke:none"
         id="path158" />
      <path
         d="m 15389.7,21482.3 c -1420.4,0 -2767.3,470.6 -3597.6,1275.3 -49.6,48 -50.8,127.1 -2.8,176.7 48,49.6 127.2,50.9 176.8,2.8 873.8,-846.8 2362.8,-1302.1 3885.5,-1187.6 1546.4,116.1 2903.1,793.8 3727.1,1860.7 l 620.9,2607.6 c -451,2837.6 -2734.8,3768.4 -3697.8,4037.3 -1773.1,494.9 -3610.8,126.2 -4468.9,-896.7 -44.3,-52.9 -123.1,-59.8 -176.1,-15.4 -52.9,44.3 -59.8,123.2 -15.4,176.1 919,1095.6 2863.1,1497.3 4727.6,976.8 968.1,-270.3 1827.8,-765.9 2486.3,-1433.2 753.3,-763.5 1222.7,-1715.9 1395.2,-2830.8 2.5,-15.9 1.8,-32.3 -1.9,-48 l -632.9,-2657.6 c -4,-16.9 -11.6,-32.9 -22.2,-46.8 -865.6,-1135.7 -2295.6,-1857.1 -3923.2,-1979.3 -160.7,-12 -321.1,-17.9 -480.6,-17.9"
         style="fill:#371a45;fill-opacity:1;fill-rule:nonzero;stroke:none"
         id="path160" />
      <path
         d="m 22043.1,24244 c -231.3,-904.8 -966,-1482.4 -1767,-1277.6 -800.9,204.7 -1169,1056.8 -937.7,1961.6 231.3,904.8 974.3,1519.7 1775.2,1314.9 801,-204.7 1160.8,-1094.1 929.5,-1998.9"
         style="fill:#ffffff;fill-opacity:1;fill-rule:nonzero;stroke:none"
         id="path162" />
      <path
         d="m 20801.9,26107.9 c -292.4,0 -525.9,-124.8 -683.1,-245.3 -289.4,-221.8 -506.4,-569.1 -610.9,-978 -103.4,-404.7 -78.2,-804.7 71,-1126.3 149.2,-321.5 405.3,-536.7 740.6,-622.4 334.8,-85.5 663.2,-18.6 949.5,193.7 286.3,212.3 501,552.4 604.5,957.7 104.3,408.1 80.2,815.6 -67.9,1147.4 -103.6,232.1 -315.3,531.3 -735.3,638.7 -94.1,24 -183.7,34.5 -268.4,34.5 m -204.2,-3357.5 c -121,0 -243.3,15.3 -364.9,46.4 -434.2,111 -779.2,400.1 -971.4,814.2 -183.1,394.5 -216,877.6 -92.6,1360.3 123.9,484.6 385.7,899.8 737.1,1169.1 373.5,286.2 817.8,382.8 1251.1,272.1 433.4,-110.8 777.3,-407.4 968.2,-835.2 180.2,-403.5 211.2,-892.5 87.4,-1376.7 -123.4,-482.9 -384.5,-892.1 -735.1,-1152.1 -265.3,-196.7 -568.7,-298.1 -879.8,-298.1"
         style="fill:#371a45;fill-opacity:1;fill-rule:nonzero;stroke:none"
         id="path164" />
      <path
         d="m 20600.7,23099.8 c -92.7,0 -186.7,12 -281.2,36.1 -288.7,73.8 -518.7,243.7 -672.3,494.7 133.1,-76.3 278.6,-121 432.1,-127.1 12.2,-0.5 24.5,-0.8 36.6,-0.8 677.7,0 1251.8,757.8 1290.4,1716.1 10.9,269.9 -22,527.7 -90,759.7 261.2,-139.7 408.3,-362.3 489.3,-543.8 148.1,-331.8 172.2,-739.3 67.9,-1147.4 -103.5,-405.3 -318.2,-745.4 -604.5,-957.7 -205.5,-152.3 -432.6,-229.8 -668.3,-229.8"
         style="fill:#cdc6d0;fill-opacity:1;fill-rule:nonzero;stroke:none"
         id="path166" />
      <path
         d="m 20598.2,22925.1 c -105.4,0 -213.2,13.3 -322.2,41.1 -471.4,120.8 -793.2,465.5 -930,913.6 90.3,-102 191.6,-186.3 301.2,-249.2 153.6,-251 383.6,-420.9 672.3,-494.7 94.5,-24.1 188.5,-36.1 281.2,-36.1 235.7,0 462.8,77.5 668.3,229.8 286.3,212.3 501,552.4 604.5,957.7 104.3,408.1 80.2,815.6 -67.9,1147.4 -81,181.5 -228.1,404.1 -489.3,543.8 -23.1,79 -50.3,154.9 -81.2,227.4 715.5,-260.5 1027.1,-1103.9 808,-1961.8 -199.9,-781.7 -775.4,-1319 -1444.9,-1319"
         style="fill:#371a45;fill-opacity:1;fill-rule:nonzero;stroke:none"
         id="path168" />
      <path
         d="m 21235.2,25808.4 c -220.1,0 -402.5,-119 -525.2,-230.8 -222.8,-202.9 -396.1,-513.2 -488.3,-873.6 -91.2,-357 -86.5,-704.7 13.2,-979.2 67.1,-184.5 208.4,-420.2 501.1,-495 477.4,-122 976.4,330.4 1161,1052.3 91.9,359.8 88.3,714 -10.2,997.4 -66.5,191.4 -206.7,435.1 -496.7,509.2 -53.4,13.6 -105.1,19.7 -154.9,19.7 z m -334,-2899.7 c -79.1,0 -159.2,10 -239.4,30.5 -327.5,83.7 -579.2,326.3 -708.8,683.1 -120.2,330.6 -128,741.1 -21.9,1156 106.4,416.5 311.3,779.1 576.8,1021 289.9,264.2 629.6,363.6 956.5,280.1 326.9,-83.6 577.6,-332.7 705.8,-701.4 117.6,-338.4 123.8,-753.9 17.5,-1170.2 -202.3,-791.3 -721,-1299.1 -1286.5,-1299.1"
         style="fill:#371a45;fill-opacity:1;fill-rule:nonzero;stroke:none"
         id="path170" />
      <path
         d="m 20938.5,26128 c -71.3,0 -134.5,51 -147.5,123.7 -600.2,3368.9 -3008.7,5164.9 -6443.4,4804.7 -82.7,-8.6 -156.1,51.2 -164.8,133.5 -8.6,82.5 51.1,156.2 133.5,164.9 1615.8,169.5 3075.3,-127.8 4220.7,-859.8 1349.9,-862.7 2207.7,-2272.7 2549.4,-4190.7 14.5,-81.6 -39.8,-159.5 -121.4,-174 -8.9,-1.6 -17.7,-2.3 -26.5,-2.3"
         style="fill:#371a45;fill-opacity:1;fill-rule:nonzero;stroke:none"
         id="path172" />
      <path
         d="m 11931.4,25857.4 c -56.6,0 -113.2,39.3 -116.1,110.6 -90.2,2181.6 553.8,3753.7 3090.4,3753.7 128.7,0 262,-4 400.6,-12.2 125.3,-7.4 150.8,-180.4 32.9,-223.5 -1708.8,-624.6 -2746.4,-1864.4 -3298.9,-3548.8 -17.9,-54.5 -63.4,-79.8 -108.9,-79.8"
         style="fill:#98899f;fill-opacity:1;fill-rule:nonzero;stroke:none"
         id="path174" />
      <path
         d="m 18121.9,23885.1 c -115.3,0 -223.3,39.2 -302.8,119.6 -182.5,184.4 -146.4,516 80.6,740.7 128,126.6 289.5,192.2 438.7,192.2 115.3,0 223.2,-39.1 302.8,-119.5 182.4,-184.5 146.4,-516.1 -80.6,-740.7 -128.1,-126.7 -289.6,-192.3 -438.7,-192.3"
         style="fill:#8a8995;fill-opacity:1;fill-rule:nonzero;stroke:none"
         id="path176" />
      <path
         d="m 16869.8,22608.2 c -119.4,0 -228.7,38.9 -308.4,119.5 -194.7,196.7 -44.8,477.7 218.3,738 177.4,175.5 361.1,296.9 521.5,296.9 77.4,0 149.5,-28.3 212.8,-92.3 194.7,-196.8 139.2,-567.3 -123.8,-827.6 -155.4,-153.6 -348.3,-234.5 -520.4,-234.5"
         style="fill:#8a8995;fill-opacity:1;fill-rule:nonzero;stroke:none"
         id="path178" />
      <path
         d="m 15680.6,20870.2 c -881.9,0 -1764.6,192.1 -2550.3,597.7 -73.7,38 -102.5,128.5 -64.5,202.1 38,73.6 128.5,102.5 202.1,64.5 2222.1,-1147.1 5262.8,-496.3 6639.7,1421.1 48.4,67.3 142.1,82.6 209.3,34.3 67.3,-48.3 82.7,-142 34.4,-209.3 -970.4,-1351.3 -2718.4,-2110.4 -4470.7,-2110.4"
         style="fill:#371a45;fill-opacity:1;fill-rule:nonzero;stroke:none"
         id="path180" />
      <path
         d="m 15600,19111.9 c 0,-9.7 -0.9,-19.5 -2.5,-29.1 -20.4,-120.2 -47.3,-500.6 91.6,-662.7 59.2,-69 177,-61.2 267.4,-22.7 87.5,37.1 186,119.6 175.5,229.9 -21.5,227.9 -277.6,386.3 -532,484.6 m 815.7,-3676.6 c -354.5,0 -721.7,92 -1103.4,275.3 -371.2,178.3 -716.9,431.3 -1027.4,751.8 -395.5,408.1 -717.3,868.9 -1001.3,1275.4 -493.4,706.4 -883.2,1264.4 -1412.1,1287.4 -56.9,2.4 -109,32.5 -139.8,80.4 -30.7,48 -36.1,107.9 -14.6,160.6 5.1,12.6 527.5,1253.8 1895.4,1179.1 466.9,-25.3 915.8,-204.4 1298.4,-518 137.2,-112.5 264.8,-234.2 381.8,-364.3 249.8,-50.3 1128,-271.6 1187.8,-902.7 23.2,-245.7 -128.7,-475.3 -387.2,-585.1 -253.6,-107.7 -516.6,-61.7 -669.9,117.2 -224.3,261.6 -201.8,697.7 -181.2,876.1 -53.2,74 -109.8,145.9 -169.8,215.2 -2.1,2.3 -4.2,4.7 -6.2,7.2 -114.2,131.2 -240.3,253.5 -377.2,365.6 -324.6,266.2 -703.4,418.1 -1095.4,439.3 -815.2,43.9 -1258.5,-467.9 -1445.3,-763.1 559.5,-159.4 963.7,-738 1422.2,-1394.5 290,-415 589.8,-844.2 965.8,-1232.3 281.6,-290.7 593.7,-519.4 927.6,-679.8 1202,-577.5 2173.7,-140.5 3150.3,1416.9 51.4,81.9 159.4,106.7 241.3,55.3 81.9,-51.4 106.6,-159.4 55.3,-241.3 -763.8,-1218 -1587.3,-1821.7 -2495.1,-1821.7"
         style="fill:#371a45;fill-opacity:1;fill-rule:nonzero;stroke:none"
         id="path182" />
      <path
         d="m 16154.9,18630.4 c 271,294.6 554.4,619.4 851.4,888.3 -155.2,-251.7 -298.6,-545.1 -430,-811.1 -42.5,-86 -91.5,-193.1 -136.4,-280.4 l -285,203.2"
         style="fill:#371a45;fill-opacity:1;fill-rule:nonzero;stroke:none"
         id="path184" />
      <path
         d="m 13711.2,17536.3 c -65.9,0 -133.4,3.8 -202.7,11.8 -82.4,9.5 -141.3,84 -131.8,166.3 9.5,82.3 83.9,141.5 166.2,131.8 1083.1,-125.8 1692.5,1041.5 1698.5,1053.3 37.7,73.8 128,103 201.8,65.4 73.8,-37.7 103.1,-128.1 65.4,-201.9 -27,-52.7 -640.5,-1226.7 -1797.4,-1226.7"
         style="fill:#371a45;fill-opacity:1;fill-rule:nonzero;stroke:none"
         id="path186" />
      <path
         d="m 11163,18926.6 c -121.2,0 -244.6,9.9 -360,36.1 -94.3,21.3 -153.4,115 -132,209.3 21.3,94.3 115.2,153.2 209.3,132.1 392.2,-89 946.2,62.9 951.8,64.5 93.1,26 189.6,-28.6 215.5,-121.6 26,-93 -28.3,-189.5 -121.3,-215.5 -19.9,-5.6 -380.9,-104.9 -763.3,-104.9"
         style="fill:#371a45;fill-opacity:1;fill-rule:nonzero;stroke:none"
         id="path188" />
      <path
         d="m 11029.6,16565 c -478.3,0 -783.9,57.5 -813.3,63.3 -94.8,18.6 -156.6,110.6 -138,205.4 18.6,94.8 110.5,156.3 205.2,138.1 16.4,-3.2 1653.8,-306.7 3384.1,571.8 86.2,43.8 191.4,9.3 235.2,-76.8 43.8,-86.2 9.4,-191.6 -76.8,-235.3 -1082.5,-549.7 -2114.8,-666.5 -2796.4,-666.5"
         style="fill:#371a45;fill-opacity:1;fill-rule:nonzero;stroke:none"
         id="path190" />
      <path
         d="m 12815,16861.2 c -31.1,0 -62.4,9.6 -89.3,29.5 -1167.6,866.4 -697.5,2294.1 -692.7,2308.4 26.8,78.4 112,120.4 190.4,93.5 78.3,-26.7 120.2,-111.7 93.7,-190.1 -16.9,-50.1 -402.3,-1236.5 587.4,-1970.9 66.5,-49.3 80.4,-143.3 31.1,-209.8 -29.4,-39.7 -74.7,-60.6 -120.6,-60.6"
         style="fill:#371a45;fill-opacity:1;fill-rule:nonzero;stroke:none"
         id="path192" />
      <path
         d="m 12312.5,20762.5 c -281.1,-394.4 -509.6,-826 -690.2,-1274 -60.6,-147.6 -111.1,-298.5 -159.1,-448.7 l -323.9,132.5 c 307,586.2 701.1,1127.5 1173.2,1590.2"
         style="fill:#371a45;fill-opacity:1;fill-rule:nonzero;stroke:none"
         id="path194" />
      <path
         d="m 15025.3,14580.7 c -87.4,0 -174.7,14.3 -257.7,42.7 l -3745.2,1277.4 c -208.1,70.9 -335.1,280.2 -302,497.5 l 56.4,370.4 c 14.5,95.6 103.6,161.4 199.3,146.7 95.5,-14.6 161.2,-103.8 146.7,-199.3 l -56.4,-370.4 c -7.6,-49.7 21.4,-97.4 68.9,-113.6 l 3745.3,-1277.5 c 70.9,-24.2 147.5,-30.3 221.4,-17.3 l 429.5,75.1 c 60.9,10.6 111.1,53.5 131.1,112 l 184.2,541.5 c 31.2,91.5 130.5,140.4 222.1,109.3 91.5,-31.1 140.4,-130.6 109.3,-222.1 l -184.3,-541.5 c -61.2,-179.7 -215.3,-311.5 -402.2,-344.1 l -429.5,-75 c -45.3,-7.9 -91.1,-11.8 -136.9,-11.8"
         style="fill:#371a45;fill-opacity:1;fill-rule:nonzero;stroke:none"
         id="path196" />
      <path
         d="m 14785.8,14657.9 c -44,0 -88.3,5.5 -132.1,16.8 l -142.6,36.7 c -93.6,24.1 -150,119.4 -125.9,213 24,93.6 119.4,150.1 213,126 l 142.7,-36.7 c 45.9,-11.8 93.6,-4.9 134.4,19.5 40.6,24.4 69.3,63.2 80.5,109.3 l 195,800.6 c 22.9,93.9 117.6,151.7 211.4,128.6 93.9,-22.8 151.5,-117.5 128.6,-211.4 l -195,-800.6 c -33.5,-137.7 -119,-253.8 -240.6,-326.7 -82.8,-49.6 -175.4,-75.1 -269.4,-75.1"
         style="fill:#371a45;fill-opacity:1;fill-rule:nonzero;stroke:none"
         id="path198" />
      <path
         d="m 13158.4,15258.3 c -12.4,0 -25,1.6 -37.6,4.8 -80.2,20.8 -128.4,102.6 -107.7,182.8 l 282.6,1092.9 -175.5,587.6 c -23.7,79.4 21.4,163 100.8,186.7 79.3,23.6 162.9,-21.4 186.6,-100.8 l 187.5,-627.7 c 7.8,-26.2 8.3,-54 1.5,-80.5 l -293.1,-1133.3 c -17.4,-67.6 -78.3,-112.5 -145.1,-112.5"
         style="fill:#371a45;fill-opacity:1;fill-rule:nonzero;stroke:none"
         id="path200" />
      <path
         d="m 14473,15712.5 c -320.6,0 -581.5,280.4 -581.5,625 0,220.4 109.5,426.6 285.7,538.2 70.1,44.3 162.7,23.5 207,-46.5 44.3,-70 23.5,-162.6 -46.5,-207 -90.2,-57.1 -146.2,-166.2 -146.2,-284.7 0,-179.2 126.3,-325 281.5,-325 116,0 221.7,84.3 263,209.9 25.9,78.7 110.6,121.5 189.4,95.6 78.6,-25.9 121.5,-110.7 95.6,-189.3 -81.8,-249 -302.1,-416.2 -548,-416.2"
         style="fill:#371a45;fill-opacity:1;fill-rule:nonzero;stroke:none"
         id="path202" />
      <path
         d="m 12375,9925 c 14.1,807.4 56.3,1600.4 242.9,2393 l 139.8,-215.4 c -150.8,43.4 -283.4,95 -424,156.6 -397.7,177.8 -789.9,423.1 -1033.7,790.8 201.5,-201.2 452.4,-334.1 716,-429.3 196.4,-68.3 397.9,-118.2 602.6,-149.7 66.6,-10.5 138.1,-19.5 198.7,-23.6 87.7,-5.8 154.2,-81.6 148.3,-169.3 -89.8,-385 -150.1,-783.1 -184.4,-1187 -33.6,-386.7 -53.1,-781.1 -56.2,-1168.2 -8.1,-230.2 -344,-230.2 -350,2.1"
         style="fill:#371a45;fill-opacity:1;fill-rule:nonzero;stroke:none"
         id="path204" />
      <path
         d="m 10175,15283.3 c -50.5,-311 -41.5,-644 75,-941.6 -172.2,191.6 -283.74,433.4 -360.55,678.8 -27.52,91.6 -50.77,175.2 -66.06,273 -25.42,281.3 393.21,269.3 351.61,-10.2"
         style="fill:#371a45;fill-opacity:1;fill-rule:nonzero;stroke:none"
         id="path206" />
      <path
         d="m 12838.7,11773.6 c -391.3,-340.6 -829.3,-653 -1338.7,-773.6 339.3,163.8 610.7,431.1 851.9,713.7 78.4,93.5 157,193.4 221.8,288.6 l 265,-228.7"
         style="fill:#371a45;fill-opacity:1;fill-rule:nonzero;stroke:none"
         id="path208" />
      <path
         d="m 14347.4,8317 c -741.7,0 -1505,150.9 -1913.7,459.5 -77.2,58.2 -92.5,167.9 -34.3,245.1 58.2,77.2 167.9,92.5 245.1,34.3 328.1,-247.7 1028.5,-400.5 1785.3,-387.3 712.3,11.6 1328.5,171.8 1498.7,389.7 59.5,76.1 169.5,89.7 245.6,30.1 76.2,-59.4 89.7,-169.4 30.2,-245.6 C 15932.7,8495.1 15152.9,8317 14347.4,8317"
         style="fill:#371a45;fill-opacity:1;fill-rule:nonzero;stroke:none"
         id="path210" />
      <path
         d="m 12587.2,7874.5 c 502.4,-38.4 978.8,-296 1312.8,-666.2 -366.2,246.6 -815.9,377.9 -1255,323.2 -10.1,-1.5 -24.7,-3.3 -32.2,-6 l -25.6,349"
         style="fill:#371a45;fill-opacity:1;fill-rule:nonzero;stroke:none"
         id="path212" />
      <path
         d="m 19403.9,13947.7 c -348.8,0 -760.3,62.1 -1113.5,285 -81.7,51.6 -106.2,159.6 -54.6,241.4 51.6,81.7 159.6,106.2 241.4,54.6 378.9,-239.2 859.4,-250.5 1195.7,-217.7 183,17.8 337.4,150.2 384.2,329.5 161.2,617.2 449.1,1722.7 566.9,2193.4 25.2,101.1 10.6,206.5 -41.3,297 l -191.2,333.1 -1481.6,-58.7 c -96.7,-4.7 -178,71.3 -181.8,167.9 -3.8,96.6 71.3,178 167.9,181.8 l 1587.6,62.9 c 65.2,2.8 126.3,-31.2 158.7,-87.7 l 243.9,-425.1 c 97.2,-169.3 124.7,-366.8 77.3,-556.2 -118.1,-472.1 -406.4,-1579 -567.7,-2196.8 -83.8,-320.6 -360.7,-557.5 -689.1,-589.4 -92.4,-9 -194.6,-15 -302.8,-15"
         style="fill:#371a45;fill-opacity:1;fill-rule:nonzero;stroke:none"
         id="path214" />
      <path
         d="m 20780.7,16867.6 c -311.2,72 -644.3,106.4 -966.4,100.2 -110.2,-1.7 -220.1,-12.1 -331,-26.1 103,42.1 208.8,81.6 317.4,112.5 333.1,95.6 668.7,148.8 1017.8,161.4 l -37.8,-348"
         style="fill:#371a45;fill-opacity:1;fill-rule:nonzero;stroke:none"
         id="path216" />
      <g
         id="g218">
        <g
           id="g220"
           clip-path="url(#clipPath224)">
          <path
             d="m 13850.6,15781.9 h 5362.9 v 5072.3 h -5362.9 z"
             style="fill:#cdc6d0;fill-opacity:1;fill-rule:nonzero;stroke:none"
             id="path226" />
        </g>
      </g>
      <path
         d="m 18615.8,17445.4 c 6.5,10.2 13,20.3 19.5,30.2 -6.4,-9.9 -12.7,-19.7 -19.2,-29.7 -0.1,-0.1 -0.2,-0.3 -0.3,-0.5 m 128.9,210 c 0.6,1.1 1.1,2 1.8,3.1 h -0.1 c -0.6,-1.1 -1.1,-2.1 -1.7,-3.1 m 11.1,19.5 c 364.8,641.9 457.7,1198.8 412.9,1660.9 54,-527.7 -83.8,-1083.2 -412.7,-1660.6 0,-0.1 -0.1,-0.2 -0.2,-0.3"
         style="fill:#371a45;fill-opacity:1;fill-rule:nonzero;stroke:none"
         id="path228" />
      <path
         d="m 18616.1,17445.9 c 6.5,10 12.8,19.8 19.2,29.7 38.5,60.1 74.9,120.1 109.4,179.8 0.6,1 1.1,2 1.7,3.1 -12.8,-25.6 -19.5,-54.7 -18.3,-85.3 0.7,-17.4 3.9,-34.2 9.3,-50 -48,-6.9 -92.7,-33.7 -121.3,-77.3 m 139.9,229.3 c 328.9,577.4 466.7,1132.9 412.7,1660.6 -23.4,228 -82.5,450.8 -177.6,667.8 -193.5,442.1 -484.9,733.1 -618.1,850.6 62.1,23.6 123.9,48.2 184.9,73.8 313.2,-279.6 986.2,-995.4 795.2,-1844.8 -122.9,-546.1 -235.5,-978.2 -368.6,-1324.7 l -88.5,-3.5 c -59,-2.3 -110.1,-33.7 -140,-79.8"
         style="fill:#371a45;fill-opacity:1;fill-rule:nonzero;stroke:none"
         id="path230" />
      <path
         d="m 16952.6,15867.2 449.2,219.6 c -147.5,-96 -297,-169.1 -449.2,-219.6"
         style="fill:#cdc6d0;fill-opacity:1;fill-rule:nonzero;stroke:none"
         id="path232" />
      <path
         d="m 17893.8,16498.5 c 10,14 22,26.4 35.4,36.8 -11.8,-12.5 -23.5,-24.7 -35.4,-36.8"
         style="fill:#371a45;fill-opacity:1;fill-rule:nonzero;stroke:none"
         id="path234" />
      <path
         d="m 13705.3,17836.7 c -21.4,0 -43,0.5 -64.8,1.5 -23.4,33.4 -46.7,66.8 -70,100 -458.5,656.5 -862.7,1235.1 -1422.2,1394.5 79.2,125.2 204.6,289.4 385,433.6 199.4,-15.8 480.9,-105.3 771.5,-416.3 257.7,-275.7 656.2,-807.5 1116.9,-1314.1 -203.7,-117.8 -443.3,-199.2 -716.4,-199.2"
         style="fill:#cdc6d0;fill-opacity:1;fill-rule:nonzero;stroke:none"
         id="path236" />
      <path
         d="m 16313.5,20479 c -451.3,0 -895.5,52.1 -1325.1,152.8 -176.8,94.4 -345.6,202.8 -499.9,327.5 304.1,-86.1 603.6,-154.6 897.9,-204.3 320.1,-64.5 649,-99.1 984,-99.1 94.8,0 190.2,2.7 285.9,8.4 611.9,21.5 1195.9,145.7 1747.9,388.8 0.5,0.2 1.3,0.5 1.8,0.7 2.3,-1.6 62.4,-45.9 151.9,-125.8 -61,-25.6 -122.8,-50.2 -184.9,-73.8 -524,-198.7 -1086.4,-324.1 -1675.1,-362.6 -128.6,-8.4 -256.8,-12.6 -384.4,-12.6"
         style="fill:#371a45;fill-opacity:1;fill-rule:nonzero;stroke:none"
         id="path238" />
      <path
         d="m 16370.4,20655.9 c -335,0 -663.9,34.6 -984,99.1 366.4,-61.7 725,-94.1 1074.8,-94.1 65.4,0 130.4,1.1 195.1,3.4 -95.7,-5.7 -191.1,-8.4 -285.9,-8.4 m 2033.8,397.2 c 0.6,0.2 1.2,0.5 1.8,0.8 0,0 0,0 0,-0.1 -0.5,-0.2 -1.3,-0.5 -1.8,-0.7"
         style="fill:#371a45;fill-opacity:1;fill-rule:nonzero;stroke:none"
         id="path240" />
      <path
         d="m 16352.9,15622.3 c -54.6,0 -110,2.5 -166.5,7.5 -7.7,64.9 -51.5,122.9 -117.5,145.4 -18.7,6.4 -37.7,9.4 -56.4,9.4 -61.3,0 -119.1,-32.4 -150.7,-86 l -308.5,91.9 c -23.8,9.8 -47.9,20.2 -71.9,30.9 l 9.4,38.9 c 19.4,79.3 -18.7,159.2 -87.6,195.9 20.1,-10.3 40.4,-20.3 60.7,-30.1 337.2,-162 656.3,-244.2 962.4,-244.2 179.5,0 354.6,28.3 526.3,85.3 152.2,50.5 301.7,123.6 449.2,219.6 166.2,108 329.8,245 492,411.7 11.9,12.1 23.6,24.3 35.4,36.8 230.1,242.6 457.5,544.7 685,907.7 0.5,0.8 1.1,1.6 1.6,2.4 0.1,0.2 0.2,0.4 0.3,0.5 28.6,43.6 73.3,70.4 121.3,77.3 16,-46.8 51.1,-84.5 95.6,-103.9 -1.1,-2.1 -2.2,-4.3 -3.3,-6.4 l -43.7,-25.4 -508.2,-673.7 c -110.8,-122.8 -244.9,-268.4 -402.2,-412.5 L 17594,16069 c 0,0 0.3,-0.1 0.8,-0.3 -335.5,-248 -749.3,-446.4 -1241.9,-446.4 m -1185.6,363.6 c -56.1,33.3 -110.3,66.6 -162.1,99.8 5.7,14 11,28.3 15.8,43 25.9,78.6 -17,163.4 -95.6,189.3 -15.6,5.1 -31.4,7.5 -47,7.5 -50.4,0 -98,-25.6 -125.7,-68.2 -165.1,119.9 -305.6,238.6 -427.8,356.3 4.2,3 8.5,5.9 12.8,8.6 70,44.4 90.8,137 46.5,207 -28.5,45.1 -77.1,69.8 -126.8,69.8 -27.5,0 -55.2,-7.5 -80.2,-23.3 -21,-13.3 -41.1,-28 -60.2,-43.9 -66,75.6 -126,150.8 -181.5,225.7 0.1,0.1 0,0 0.1,0.1 0,0 -41.7,64.9 -113.5,171.9 1.3,0.6 2.6,1.3 3.9,2 86.2,43.7 120.6,149.1 76.8,235.3 -3.1,6.2 -6.6,12.1 -10.4,17.8 195.1,-266.8 404,-531.1 643.9,-778.7 263,-271.5 552.6,-488.9 861.6,-647 -11.2,5.4 -23.1,9.8 -35.7,12.8 -13.9,3.5 -27.9,5.1 -41.7,5.1 -63.7,0 -122.6,-35.2 -153.2,-90.9 m 3593.8,1305.7 c 1.1,38.2 1.4,58.4 1.4,58.4 7.8,12.2 15.7,24.5 23.5,36.3 l 0.9,-51.1 c -8.5,-14.7 -17.1,-29.2 -25.8,-43.6 m -4877.9,205.5 c -14.4,18 -32,32.7 -51.5,43.5 6.3,0.4 12.7,0.9 18.9,1.4 10.9,-14.9 21.7,-29.9 32.6,-44.9 m -254,27.2 c -2.9,4.8 -5.8,9.6 -8.7,14.4 11.6,-0.6 23.1,-1.1 34.5,-1.5 -8.6,-4.3 -17.2,-8.7 -25.8,-12.9 m -181.5,301 c -232.2,376.1 -502.5,748.5 -1039.4,1124.7 l -112.9,78 c 10.9,42 19.5,68 21.7,74.5 26.5,78.4 -15.4,163.4 -93.7,190.1 -16.1,5.6 -32.4,8.2 -48.5,8.2 -49.6,0 -96.4,-24.8 -124.3,-66.2 -0.8,4.1 -1.8,8.3 -3,12.4 -10,36 -30.6,66.3 -57.5,88.3 8.5,92.6 59.3,239.2 256.7,402.2 0,0 82.8,31.6 217.1,31.6 21.8,0 45,-0.8 69.4,-2.8 -180.4,-144.2 -305.8,-308.4 -385,-433.6 559.5,-159.4 963.7,-738 1422.2,-1394.5 23.3,-33.2 46.6,-66.6 70,-100 -32.1,1.5 -64.7,4.1 -97.6,8 -5.9,0.7 -11.8,1 -17.7,1 -28.1,0 -54.7,-7.9 -77.5,-21.9"
         style="fill:#371a45;fill-opacity:1;fill-rule:nonzero;stroke:none"
         id="path242" />
      <path
         d="m 13655,17537.2 c -11.4,0.4 -22.9,0.9 -34.5,1.5 -57.6,95.8 -114,191.3 -172.8,286.6 22.8,14 49.4,21.9 77.5,21.9 5.9,0 11.8,-0.3 17.7,-1 32.9,-3.9 65.5,-6.5 97.6,-8 21.8,-1 43.4,-1.5 64.8,-1.5 273.1,0 512.7,81.4 716.4,199.2 69.5,-76.3 140.4,-152.2 212.4,-226.5 -220.5,-138 -482,-242.3 -783.5,-267.4 -6.2,-0.5 -12.6,-1 -18.9,-1.4 -25.9,14.3 -55.2,22 -85,22 -26.7,0 -53.7,-6.1 -79.1,-19 -4.3,-2.2 -8.4,-4.3 -12.6,-6.4"
         style="fill:#371a45;fill-opacity:1;fill-rule:nonzero;stroke:none"
         id="path244" />
      <path
         d="m 12036.1,19207.3 -37.7,26 c 0,0 -14.2,38.2 -8.3,102 26.9,-22 47.5,-52.3 57.5,-88.3 1.2,-4.1 2.2,-8.3 3,-12.4 -5.7,-8.4 -10.6,-17.6 -14.5,-27.3"
         style="fill:#371a45;fill-opacity:1;fill-rule:nonzero;stroke:none"
         id="path246" />
      <path
         d="m 13822.1,17229.5 c -34.7,51.6 -76.5,113.1 -124.1,181.9 -23.3,37.7 -46.1,75.3 -68.8,112.9 8.6,4.2 17.2,8.6 25.8,12.9 4.2,2.1 8.3,4.2 12.6,6.4 25.4,12.9 52.4,19 79.1,19 29.8,0 59.1,-7.7 85,-22 19.5,-10.8 37.1,-25.5 51.5,-43.5 3.3,-4 6.3,-8.2 9.2,-12.5 3.8,-5.7 7.3,-11.6 10.4,-17.8 43.8,-86.2 9.4,-191.6 -76.8,-235.3 -1.3,-0.7 -2.6,-1.4 -3.9,-2"
         style="fill:#371a45;fill-opacity:1;fill-rule:nonzero;stroke:none"
         id="path248" />
      <path
         d="m 12295.4,19028 -259.3,179.3 c 3.9,9.7 8.8,18.9 14.5,27.3 27.9,41.4 74.7,66.2 124.3,66.2 16.1,0 32.4,-2.6 48.5,-8.2 78.3,-26.7 120.2,-111.7 93.7,-190.1 -2.2,-6.5 -10.8,-32.5 -21.7,-74.5"
         style="fill:#371a45;fill-opacity:1;fill-rule:nonzero;stroke:none"
         id="path250" />
      <path
         d="m 16186.4,15629.8 c -56.9,5.1 -114.8,12.9 -173.6,23.6 l -0.3,0.4 -150.7,44.8 c 31.6,53.6 89.4,86 150.7,86 18.7,0 37.7,-3 56.4,-9.4 66,-22.5 109.8,-80.5 117.5,-145.4"
         style="fill:#371a45;fill-opacity:1;fill-rule:nonzero;stroke:none"
         id="path252" />
      <path
         d="m 15481.4,15821.4 c -95.2,42.7 -192.6,93 -292,151.5 -7.5,4.3 -14.7,8.6 -22.1,13 30.6,55.7 89.5,90.9 153.2,90.9 13.8,0 27.8,-1.6 41.7,-5.1 12.6,-3 24.5,-7.4 35.7,-12.8 1.8,-0.9 3.5,-1.8 5.3,-2.7 68.9,-36.7 107,-116.6 87.6,-195.9 l -9.4,-38.9"
         style="fill:#371a45;fill-opacity:1;fill-rule:nonzero;stroke:none"
         id="path254" />
      <path
         d="m 15005.2,16085.7 c -90.2,57.5 -174.1,114.7 -252.5,171.6 27.7,42.6 75.3,68.2 125.7,68.2 15.6,0 31.4,-2.4 47,-7.5 78.6,-25.9 121.5,-110.7 95.6,-189.3 -4.8,-14.7 -10.1,-29 -15.8,-43 m -680.3,527.9 c -75.9,73.1 -144.7,145.8 -207.9,218.2 19.1,15.9 39.2,30.6 60.2,43.9 25,15.8 52.7,23.3 80.2,23.3 49.7,0 98.3,-24.7 126.8,-69.8 44.3,-70 23.5,-162.6 -46.5,-207 -4.3,-2.7 -8.6,-5.6 -12.8,-8.6"
         style="fill:#371a45;fill-opacity:1;fill-rule:nonzero;stroke:none"
         id="path256" />
      <path
         d="m 18833,17419.3 c -44.5,19.4 -79.6,57.1 -95.6,103.9 -5.4,15.8 -8.6,32.6 -9.3,50 -1.2,30.6 5.5,59.7 18.3,85.3 h 0.1 c 2.8,5.7 5.9,11.1 9.3,16.4 0.1,0.1 0.2,0.2 0.2,0.3 29.9,46.1 81,77.5 140,79.8 l 88.5,3.5 c -47.4,-123.5 -97.4,-236.1 -151.5,-339.2"
         style="fill:#371a45;fill-opacity:1;fill-rule:nonzero;stroke:none"
         id="path258" />
      <path
         d="m 15669.5,5808.5 h -3749 c -98.9,0 -184.6,64.6 -213.5,161.3 -26.2,86.1 -44.7,174 -55.3,261 412.7,8.6 1260,25.2 2248.3,39.7 1050.2,15.4 1228.2,741.8 1161.9,2095.7 321.5,46.5 611.1,125.6 829.6,236.7 V 6030.5 c 0,-122.4 -99.6,-222 -222,-222"
         style="fill:#cdc6d0;fill-opacity:1;fill-rule:nonzero;stroke:none"
         id="path260" />
      <path
         d="m 15669.6,5808.4 h -3749 c -98.8,0 -184.7,64.7 -213.8,161.1 -27.7,92 -45.6,179.1 -55.5,261.3 0.1,0 0.3,0 0.4,0 10.6,-87 29.1,-174.9 55.3,-261 28.9,-96.7 114.6,-161.3 213.5,-161.3 h 3749 c 122.4,0 222,99.6 222,222 v 2572.4 c 0.1,0 0.1,0.1 0.2,0.1 V 6030.4 c 0,-122.4 -99.7,-222 -222.1,-222"
         style="fill:#371a45;fill-opacity:1;fill-rule:nonzero;stroke:none"
         id="path262" />
      <path
         d="m 15669.5,5633.5 h -3749 c -176,0 -330.5,116.5 -381,285.5 -32,105.5 -52.5,208.5 -63.5,308 44,1 103,2.2 175.3,3.8 9.9,-82.2 27.8,-169.3 55.5,-261.3 29.1,-96.4 115,-161.1 213.8,-161.1 h 3749 c 122.4,0 222.1,99.6 222.1,222 V 8603 c 64.8,33 123.4,68.8 174.8,107.4 V 6030.5 c 0,-219.5 -177.5,-397 -397,-397"
         style="fill:#371a45;fill-opacity:1;fill-rule:nonzero;stroke:none"
         id="path264" />
      <path
         d="m 15040.6,8717.5 c -25.7,364.1 -63.3,767.2 -103.1,1207.5 -212,2350 1787.5,2962.5 2150,3889 243,620.6 14.2,1035.8 -163,1242.1 176.6,-13.8 364.5,-22.8 554,-22.8 290.1,0 584,21.1 846.6,78.4 l -88.9,-547.9 -18.7,-116.3 c -259.2,-1136.6 -699.2,-2346.4 -1445.2,-3102.9 -0.3,-0.2 -0.6,-0.6 -0.9,-0.9 -35.6,-38.2 -511.9,-560.9 -748.8,-1393.6 -0.1,-0.1 -0.1,-0.3 -0.1,-0.3 -0.1,-0.1 -0.1,-0.2 -0.1,-0.3 -79.2,-278.3 -131.6,-591.2 -131.9,-932.2 -142.9,-133.1 -455.9,-240.8 -849.9,-299.8 m 3399.8,7809 c -17.9,0 -36.4,0.2 -55.3,0.7 57,67.7 113.6,138.7 169.9,212.7 -5,-66.2 -10.7,-136.7 -17.3,-211.4 -29.5,-1.2 -62.3,-2 -97.3,-2"
         style="fill:#cdc6d0;fill-opacity:1;fill-rule:nonzero;stroke:none"
         id="path266" />
      <path
         d="m 15890.5,9017.3 c 0.3,341 52.7,653.9 131.9,932.2 -79.1,-278.3 -131.5,-591.1 -131.7,-932.1 -0.1,0 -0.1,-0.1 -0.2,-0.1 m 132,932.5 c 0,0 0,0.2 0.1,0.3 -0.1,-0.1 -0.1,-0.2 -0.1,-0.3"
         style="fill:#371a45;fill-opacity:1;fill-rule:nonzero;stroke:none"
         id="path268" />
      <path
         d="m 18217.5,14447.5 v 0 l 18.7,116.3 88.9,547.9 c 9.2,2 18.4,4.1 27.5,6.2 -38.4,-217.7 -83.1,-442.6 -135.1,-670.4"
         style="fill:#371a45;fill-opacity:1;fill-rule:nonzero;stroke:none"
         id="path270" />
      <path
         d="m 15890.7,9017.4 c 0.2,341 52.6,653.8 131.7,932.1 0,0.1 0,0.2 0.1,0.3 0,0.1 0,0.2 0.1,0.3 236.9,832.7 713.2,1355.4 748.8,1393.6 0.3,0.3 0.6,0.7 0.9,0.9 746,756.5 1186,1966.3 1445.2,3102.9 52,227.8 96.7,452.7 135.1,670.4 65.2,15 128.4,32.2 189,52.1 -2.2,-12.8 -4.4,-25.4 -6.6,-38.2 -69,-161.7 -49.2,-253.6 -47.6,-260.4 -0.3,-1.5 -0.6,-3.1 -0.9,-4.6 l -73.4,-313.5 c -9.7,1.6 -19.4,2.4 -29.1,2.4 -58.1,0 -114.9,-28.9 -148.2,-81.6 -51.6,-81.8 -27.1,-189.8 54.6,-241.4 13.9,-8.8 27.8,-17.3 41.9,-25.6 l -65.8,-282.1 -781,-1770 -2,-5 c 0,0 2.5,-3 8,-8 9.6,-9.3 27.5,-26.3 53,-48.2 -185.2,-324.2 -398.7,-619.6 -644.5,-868.8 0,0 -786,-839.1 -832.3,-2099.5 -0.4,0 -0.8,0 -1.2,0 -52,0 -103.5,-23.1 -138,-67.2 -10.9,-13.9 -23.5,-27.5 -37.8,-40.9 m 2647,7511.1 c 6.6,74.7 12.3,145.2 17.3,211.4 65,85.5 129.7,175.4 193.8,269.4 -7,-127.3 -17.6,-286.1 -33.4,-469.9 -5.2,0.5 -10.5,0.7 -15.8,0.7 -7,0 -14,-0.4 -21,-1.3 -1.4,-0.2 -57.8,-6.8 -140.9,-10.3"
         style="fill:#371a45;fill-opacity:1;fill-rule:nonzero;stroke:none"
         id="path272" />
      <path
         d="m 17867.5,15397.7 c 63.2,265.8 -6.6,434.1 -91.5,535.8 105.2,80.9 209.4,171.7 312.4,272.4 121.4,-22.6 247.6,-29.3 355.1,-29.3 87.6,0 162.8,4.5 212.8,8.5 40.8,-37.8 66.7,-104.9 71,-187.7 8.2,-155.4 -60.9,-359.6 -232.8,-473 -180.8,-68.7 -397.5,-107.8 -627,-126.7"
         style="fill:#cdc6d0;fill-opacity:1;fill-rule:nonzero;stroke:none"
         id="path274" />
      <path
         d="m 17478.5,15033.3 c -189.5,0 -377.4,9 -554,22.8 -87.2,101.5 -162,152.4 -162,152.4 h 1043 c 27.9,68 48.1,130.9 62,189.2 229.5,18.9 446.2,58 627,126.7 171.9,113.4 241,317.6 232.8,473 -4.3,82.8 -30.2,149.9 -71,187.7 -50,-4 -125.2,-8.5 -212.8,-8.5 -107.5,0 -233.7,6.7 -355.1,29.3 99.9,97.8 198.8,204.8 296.7,321.3 18.9,-0.5 37.4,-0.7 55.3,-0.7 35,0 67.8,0.8 97.3,2 v 0 c 83.1,3.5 139.5,10.1 140.9,10.3 7,0.9 14,1.3 21,1.3 5.3,0 10.6,-0.2 15.8,-0.7 -4.8,-55.9 -10.1,-114.1 -15.9,-174.4 -2.5,-24.5 -4.5,-49.5 -7,-75 67.7,-27.4 115.1,-70.9 145.4,-124.1 9.2,-125.3 11,-276.8 -11.1,-421 -52.6,-119.4 -138.5,-222.2 -235.8,-265.9 -5.5,-37 -11,-74 -17,-111.5 -10.2,-65 -21.1,-130.9 -32.4,-197.5 -60.6,-19.9 -123.8,-37.1 -189,-52.1 -9.1,-2.1 -18.3,-4.2 -27.5,-6.2 -262.6,-57.3 -556.5,-78.4 -846.6,-78.4"
         style="fill:#371a45;fill-opacity:1;fill-rule:nonzero;stroke:none"
         id="path276" />
      <path
         d="m 17776,15933.5 c -79.4,95 -171.9,131.7 -181.2,135.2 100.6,74.4 194.3,153.3 280.8,232.6 l 240.9,198.7 161.3,213.8 c 83.1,92.1 153.2,171.5 210.2,227.9 102.6,101.4 192.3,216.8 273.1,349.9 -1.7,-56.7 -5.2,-153.2 -12.3,-282.3 -64.1,-94 -128.8,-183.9 -193.8,-269.4 v 0 c -56.3,-74 -112.9,-145 -169.9,-212.7 -97.9,-116.5 -196.8,-223.5 -296.7,-321.3 -103,-100.7 -207.2,-191.5 -312.4,-272.4"
         style="fill:#371a45;fill-opacity:1;fill-rule:nonzero;stroke:none"
         id="path278" />
      <path
         d="m 15061.9,8366.2 c -5.5,112.8 -12.8,229.8 -21.3,351.3 394,59 707,166.7 849.9,299.8 0.1,0 0.1,0.1 0.2,0.1 14.3,13.4 26.9,27 37.8,40.9 34.5,44.1 86,67.2 138,67.2 0.4,0 0.8,0 1.2,0 -2.3,-63 -2.8,-126.9 -1.2,-192 v -223.1 c -51.4,-38.6 -110,-74.4 -174.8,-107.4 -0.1,0 -0.1,-0.1 -0.2,-0.1 -218.5,-111.1 -508.1,-190.2 -829.6,-236.7"
         style="fill:#371a45;fill-opacity:1;fill-rule:nonzero;stroke:none"
         id="path280" />
      <path
         d="m 18332.3,14207.1 c -14.1,8.3 -28,16.8 -41.9,25.6 -81.7,51.6 -106.2,159.6 -54.6,241.4 33.3,52.7 90.1,81.6 148.2,81.6 9.7,0 19.4,-0.8 29.1,-2.4 l -4.1,-17.3 -76.7,-328.9"
         style="fill:#371a45;fill-opacity:1;fill-rule:nonzero;stroke:none"
         id="path282" />
      <path
         d="m 17594.8,16068.7 c -0.5,0.2 -0.8,0.3 -0.8,0.3 l 281.6,232.3 c -86.5,-79.3 -180.2,-158.2 -280.8,-232.6 m 683,645.1 508.2,673.7 v -1.2 c -7.8,-11.8 -15.7,-24.1 -23.5,-36.3 0,0 -0.3,-20.2 -1.4,-58.4 -80.8,-133.1 -170.5,-248.5 -273.1,-349.9 -57,-56.4 -127.1,-135.8 -210.2,-227.9"
         style="fill:#371a45;fill-opacity:1;fill-rule:nonzero;stroke:none"
         id="path284" />
      <path
         d="m 12247,16448.1 c -382.3,0 -762.8,52.3 -1090.7,118.3 532.2,11.2 1244.6,96 2017.5,380.6 l 99.7,-333.9 c -317,-120.1 -672.6,-165 -1026.5,-165 m 1300.8,294.7 -94.1,315.2 c 79.4,33.8 159.2,69.7 239.4,108 50,-66.7 101.2,-133.5 153.9,-200 -91.4,-87.1 -191.8,-160.9 -299.2,-223.2 m -2530.5,175.8 c -351.4,0 -599.5,32 -692.9,46.4 -139.6,115.3 -257.3,238.9 -352.99,370.6 -0.07,0.1 -0.13,0.1 -0.2,0.2 -0.17,0.3 -0.35,0.5 -0.51,0.7 -160.02,220.4 -258.46,463.1 -294.9,727.2 273.45,-260.2 816.4,-490.4 1464.8,-490.4 249,0 513.6,34 784.4,113.2 52.9,15.5 101.9,32.2 147.3,50 84,-217.7 214.2,-435.8 410.9,-635.6 -568.1,-143.6 -1079.4,-182.3 -1465.9,-182.3"
         style="fill:#cdc6d0;fill-opacity:1;fill-rule:nonzero;stroke:none"
         id="path286" />
      <path
         d="m 9971.41,17335.6 c -0.07,0.1 -0.13,0.1 -0.2,0.2 0.07,-0.1 0.13,-0.1 0.2,-0.2 m -0.71,0.9 c -160.05,220.4 -258.49,463.1 -294.93,727.2 0.03,0 0,0 0.03,0 36.44,-264.1 134.88,-506.8 294.9,-727.2"
         style="fill:#371a45;fill-opacity:1;fill-rule:nonzero;stroke:none"
         id="path288" />
      <path
         d="m 10115,16911.4 c -400.11,371.8 -590,1347.5 -590,1347.5 32.16,-64.9 83.27,-131 150.77,-195.2 36.44,-264.1 134.88,-506.8 294.93,-727.2 0.16,-0.2 0.34,-0.4 0.51,-0.7 0.07,-0.1 0.13,-0.1 0.2,-0.2 95.69,-131.7 213.39,-255.3 352.99,-370.6 -25.5,3.9 -39.4,6.5 -40.9,6.8 -11.2,2.1 -22.3,3.2 -33.4,3.2 -52.9,0 -102.3,-24.1 -135.1,-63.6"
         style="fill:#371a45;fill-opacity:1;fill-rule:nonzero;stroke:none"
         id="path290" />
      <path
         d="m 12821.2,17197.2 c -248.9,207.5 -398.9,445.2 -485.6,680.9 327.9,243.2 290.8,577.2 207.3,807.4 242,-233.7 476.5,-569.4 740.7,-947.7 64.4,-92.2 130.8,-187.1 199.5,-283.7 -224.3,-103.7 -446.1,-188.3 -661.9,-256.9"
         style="fill:#cdc6d0;fill-opacity:1;fill-rule:nonzero;stroke:none"
         id="path292" />
      <path
         d="m 13847,16966 c -52.7,66.5 -103.9,133.3 -153.9,200 41.1,19.6 82.2,39.8 123.5,60.7 37.6,-56.3 77,-112.6 118.9,-169.2 -28.4,-32 -58,-62.5 -88.5,-91.5 m -363.9,488.1 c -68.7,96.6 -135.1,191.5 -199.5,283.7 -264.2,378.3 -498.7,714 -740.7,947.7 -56.6,156.1 -134.6,264.5 -134.6,264.5 326.2,-263.4 709.6,-739 1010.6,-1147.4 -22.7,-23.1 -38.2,-53.6 -42.2,-88.2 -9.5,-82.3 49.4,-156.8 131.8,-166.3 33.8,-3.9 67.2,-6.8 100.2,-8.8 4.4,-6.2 8.8,-12.5 13.2,-18.7 -46.5,-23 -92.6,-45.1 -138.8,-66.5"
         style="fill:#371a45;fill-opacity:1;fill-rule:nonzero;stroke:none"
         id="path294" />
      <path
         d="m 13608.7,17539.3 c -33,2 -66.4,4.9 -100.2,8.8 -82.4,9.5 -141.3,84 -131.8,166.3 4,34.6 19.5,65.1 42.2,88.2 68,-92.3 131.8,-181.1 189.8,-263.3"
         style="fill:#371a45;fill-opacity:1;fill-rule:nonzero;stroke:none"
         id="path296" />
      <path
         d="m 11156.3,16566.4 c -18.4,3.7 -36.6,7.4 -54.6,11.2 l 21.1,138.5 c 14.5,95.5 -51.2,184.7 -146.7,199.3 -9,1.4 -17.9,2 -26.8,2 -85,0 -159.4,-62.1 -172.5,-148.7 l -16.9,-111 c -194,50.4 -350.1,99.1 -449.8,132.3 -69.8,23.2 -134.8,65.5 -195.1,121.4 32.8,39.5 82.2,63.6 135.1,63.6 11.1,0 22.2,-1.1 33.4,-3.2 1.5,-0.3 15.4,-2.9 40.9,-6.8 93.4,-14.4 341.5,-46.4 692.9,-46.4 386.5,0 897.8,38.7 1465.9,182.3 71.7,-72.8 152.2,-143.2 242.5,-210.2 26.9,-19.9 58.2,-29.5 89.3,-29.5 45.9,0 91.2,20.9 120.6,60.6 49.3,66.5 35.4,160.5 -31.1,209.8 -28.9,21.5 -56.7,43.4 -83.3,65.6 215.8,68.6 437.6,153.2 661.9,256.9 46.2,21.4 92.3,43.5 138.8,66.5 26.7,-38 52.2,-74.5 76.1,-109.2 38,-61.4 77.2,-123 118.6,-184.7 -41.3,-20.9 -82.4,-41.1 -123.5,-60.7 -80.2,-38.3 -160,-74.2 -239.4,-108 l -46.1,154.3 c -19.4,65.1 -79.1,107.1 -143.7,107.1 -14.2,0 -28.6,-2.1 -42.9,-6.3 -79.4,-23.7 -124.5,-107.3 -100.8,-186.7 l 53.6,-179.4 c -772.9,-284.6 -1485.3,-369.4 -2017.5,-380.6"
         style="fill:#371a45;fill-opacity:1;fill-rule:nonzero;stroke:none"
         id="path298" />
      <path
         d="m 12815,16861.2 c -31.1,0 -62.4,9.6 -89.3,29.5 -90.3,67 -170.8,137.4 -242.5,210.2 -196.7,199.8 -326.9,417.9 -410.9,635.6 106.5,41.8 193.3,89.6 263.3,141.6 86.7,-235.7 236.7,-473.4 485.6,-680.9 26.6,-22.2 54.4,-44.1 83.3,-65.6 66.5,-49.3 80.4,-143.3 31.1,-209.8 -29.4,-39.7 -74.7,-60.6 -120.6,-60.6"
         style="fill:#371a45;fill-opacity:1;fill-rule:nonzero;stroke:none"
         id="path300" />
      <path
         d="m 11101.7,16577.6 c -122.9,25.7 -237.9,53.2 -341.8,80.1 l 16.9,111 c 13.1,86.6 87.5,148.7 172.5,148.7 8.9,0 17.8,-0.6 26.8,-2 95.5,-14.6 161.2,-103.8 146.7,-199.3 l -21.1,-138.5"
         style="fill:#371a45;fill-opacity:1;fill-rule:nonzero;stroke:none"
         id="path302" />
      <path
         d="m 13273.5,16613.1 -99.7,333.9 -53.6,179.4 c -23.7,79.4 21.4,163 100.8,186.7 14.3,4.2 28.7,6.3 42.9,6.3 64.6,0 124.3,-42 143.7,-107.1 l 46.1,-154.3 94.1,-315.2 c -87.2,-50.6 -179,-93.6 -274.3,-129.7"
         style="fill:#371a45;fill-opacity:1;fill-rule:nonzero;stroke:none"
         id="path304" />
      <path
         d="m 13935.5,17057.5 c -41.9,56.6 -81.3,112.9 -118.9,169.2 1.8,0.9 3.6,1.8 5.5,2.8 71.8,-107 113.5,-171.9 113.5,-171.9 -0.1,-0.1 0,0 -0.1,-0.1"
         style="fill:#371a45;fill-opacity:1;fill-rule:nonzero;stroke:none"
         id="path306" />
      <path
         d="m 13816.6,17226.7 c -41.4,61.7 -80.6,123.3 -118.6,184.7 47.6,-68.8 89.4,-130.3 124.1,-181.9 -1.9,-1 -3.7,-1.9 -5.5,-2.8"
         style="fill:#371a45;fill-opacity:1;fill-rule:nonzero;stroke:none"
         id="path308" />
      <path
         d="m 12378.6,10102.8 c -481.3,14.5 -917.6,85.5 -1301.3,209.5 462.4,116 692.7,376 699.8,773.9 246.9,95.1 476.4,232.3 691.8,389.7 -56.6,-455.1 -79.5,-911.9 -90.3,-1373.1"
         style="fill:#cdc6d0;fill-opacity:1;fill-rule:nonzero;stroke:none"
         id="path310" />
      <path
         d="m 12378.6,10102.8 c -481.4,14.5 -917.6,85.5 -1301.4,209.5 0.1,0 0,0 0.1,0 383.7,-124 820,-195 1301.3,-209.5 v 0"
         style="fill:#371a45;fill-opacity:1;fill-rule:nonzero;stroke:none"
         id="path312" />
      <path
         d="m 12262.8,10032.9 c -416.2,0 -1174.9,28.6 -1536.9,222.7 129.1,11.4 246.3,30.4 351.3,56.7 383.8,-124 820,-195 1301.4,-209.5 -0.5,-23.1 -1,-46.1 -1.5,-69.2 -34.1,-0.5 -72.5,-0.7 -114.3,-0.7"
         style="fill:#371a45;fill-opacity:1;fill-rule:nonzero;stroke:none"
         id="path314" />
      <path
         d="m 11775.8,11164.2 c -29.1,564.6 -469,1383.7 -1296.4,2442.7 39,-49.1 342,-414.6 988,-768.1 237.4,-254.2 550.1,-438.2 866.3,-579.6 83.9,-36.8 164.9,-70 248.7,-100 -14.2,-67.2 -27.5,-134.3 -39.8,-201.5 -58.1,-81.5 -124.5,-165 -190.7,-244 -172.1,-201.7 -359.6,-395.5 -576.1,-549.5"
         style="fill:#cdc6d0;fill-opacity:1;fill-rule:nonzero;stroke:none"
         id="path316" />
      <path
         d="m 12377.1,10033.6 c 0.5,23.1 1,46.1 1.5,69.2 v 0 c 10.8,461.2 33.7,918 90.3,1373.1 85.6,62.5 168.9,128.3 250.2,195.9 l -167.9,-1633.9 c 0,0 -66,-2.9 -174.1,-4.3 m 361.3,1826.5 -164.7,142.2 c -10,-14.8 -20.4,-29.7 -31.1,-44.6 12.3,67.2 25.6,134.3 39.8,201.5 -83.8,30 -164.8,63.2 -248.7,100 -316.2,141.4 -628.9,325.4 -866.3,579.6 340.8,-186.5 776.9,-369.6 1320.1,-501.3 l -49.1,-477.4"
         style="fill:#371a45;fill-opacity:1;fill-rule:nonzero;stroke:none"
         id="path318" />
      <path
         d="m 11777.1,11086.2 c 0.5,25.5 0,51.4 -1.3,78 216.5,154 404,347.8 576.1,549.5 66.2,79 132.6,162.5 190.7,244 10.7,14.9 21.1,29.8 31.1,44.6 l 164.7,-142.2 -19.3,-188.3 c -81.3,-67.6 -164.6,-133.4 -250.2,-195.9 -215.4,-157.4 -444.9,-294.6 -691.8,-389.7"
         style="fill:#371a45;fill-opacity:1;fill-rule:nonzero;stroke:none"
         id="path320" />
      <path
         d="m 10479.4,13606.9 c -3,3.7 -4.4,5.6 -4.4,5.6 1.5,-1.9 2.9,-3.7 4.4,-5.6"
         style="fill:#cdc6d0;fill-opacity:1;fill-rule:nonzero;stroke:none"
         id="path322" />
      <path
         d="m 15244.1,13883.1 c -605.4,0 -1508.8,223.4 -2537.9,654.4 -1212,507.6 -1441.8,1025.5 -1470.7,1290.6 l 3259.8,-1111.9 c 1.8,-0.6 3.6,-1.2 5.4,-1.8 l 266.9,-91 c 82.8,-28.3 170,-42.7 257.3,-42.7 0.1,0 0.3,0 0.4,0 45.8,0 91.6,3.9 136.9,11.8 l 429.5,75 c 186.9,32.6 341,164.4 402.2,344.1 l 53,155.8 c 43,-7.6 94,-16.2 151.8,-25.3 -15.7,-234 -60.2,-611.3 -186.2,-942.1 -81.1,-212.9 -355.4,-316.9 -768.4,-316.9"
         style="fill:#cdc6d0;fill-opacity:1;fill-rule:nonzero;stroke:none"
         id="path324" />
      <path
         d="m 16198.7,15142.1 c -57.8,9.1 -108.8,17.7 -151.8,25.3 l 97.2,285.5 c 1.8,-0.2 3.6,-0.4 5.4,-0.7 l 57.7,-84.8 c 0,0 0.8,-88 -8.5,-225.3"
         style="fill:#371a45;fill-opacity:1;fill-rule:nonzero;stroke:none"
         id="path326" />
      <path
         d="m 15263.3,14965.5 c 13.7,30 24.6,61.5 32.5,94.2 l 144.4,592.7 c 120.9,-52.1 240.4,-94.8 358.4,-128.1 l -33.3,-98.1 c -0.6,-1.5 -1.1,-3 -1.6,-4.5 l -101.1,-297.3 c -20,-58.5 -70.2,-101.4 -131.1,-112 l -268.2,-46.9"
         style="fill:#cdc6d0;fill-opacity:1;fill-rule:nonzero;stroke:none"
         id="path328" />
      <path
         d="m 15763.7,15421.7 c 0.5,1.5 1,3 1.6,4.5 l -1.6,-4.5"
         style="fill:#371a45;fill-opacity:1;fill-rule:nonzero;stroke:none"
         id="path330" />
      <path
         d="m 16149.5,15452.2 c -1.8,0.3 -3.6,0.5 -5.4,0.7 l 1.6,4.9 3.8,-5.6 m -350.9,72.1 c -118,33.3 -237.5,76 -358.4,128.1 l 39,160.1 74.1,-22 c 103.6,-42.9 204.4,-76.6 302.8,-102.4 -3.5,-7.1 -6.6,-14.5 -9.3,-22.2 l -48.2,-141.6"
         style="fill:#371a45;fill-opacity:1;fill-rule:nonzero;stroke:none"
         id="path332" />
      <path
         d="m 15024.9,14580.7 c -87.3,0 -174.5,14.4 -257.3,42.7 l -266.9,91 c 3.4,-1.1 6.9,-2.1 10.4,-3 l 142.6,-36.7 c 43.8,-11.3 88.1,-16.8 132.1,-16.8 94,0 186.6,25.5 269.4,75.1 92.7,55.6 164.4,136.3 208.1,232.5 l 268.2,46.9 c 60.9,10.6 111.1,53.5 131.1,112 l 101.1,297.3 1.6,4.5 33.3,98.1 48.2,141.6 c 2.7,7.7 5.8,15.1 9.3,22.2 52.9,-13.8 105.3,-25.4 156.7,-34.7 l 132.9,-195.6 -1.6,-4.9 -97.2,-285.5 -53,-155.8 c -61.2,-179.7 -215.3,-311.5 -402.2,-344.1 l -429.5,-75 c -45.3,-7.9 -91.1,-11.8 -136.9,-11.8 -0.1,0 -0.3,0 -0.4,0 m -529.6,135.5 -3259.8,1111.9 c -12.3,113.6 12.2,180.8 12.2,180.8 l 1760.6,-600.6 c 0,-66.7 44.9,-127.7 112.5,-145.2 12.6,-3.2 25.2,-4.8 37.6,-4.8 46.7,0 90.6,22 118.7,58.3 l 714,-243.5 c 0,0 183.6,-83.4 397.1,-138.2 -1.1,-3.5 -2.1,-6.9 -3,-10.5 -22.7,-88.2 26,-178 110.1,-208.2"
         style="fill:#371a45;fill-opacity:1;fill-rule:nonzero;stroke:none"
         id="path334" />
      <path
         d="m 14785.8,14657.9 c -44,0 -88.3,5.5 -132.1,16.8 l -142.6,36.7 c -3.5,0.9 -7,1.9 -10.4,3 -1.8,0.6 -3.6,1.2 -5.4,1.8 -84.1,30.2 -132.8,120 -110.1,208.2 0.9,3.6 1.9,7 3,10.5 104.6,-26.9 216.3,-46.9 317.2,-46.9 90.6,0 172.4,16.2 232.3,58 262.8,183.5 373.6,916.5 373.6,916.5 l 167.9,-50 -39,-160.1 -144.4,-592.7 c -7.9,-32.7 -18.8,-64.2 -32.5,-94.2 -43.7,-96.2 -115.4,-176.9 -208.1,-232.5 -82.8,-49.6 -175.4,-75.1 -269.4,-75.1"
         style="fill:#371a45;fill-opacity:1;fill-rule:nonzero;stroke:none"
         id="path336" />
      <path
         d="m 13158.4,15258.3 c -12.4,0 -25,1.6 -37.6,4.8 -67.6,17.5 -112.5,78.5 -112.5,145.2 l 268.8,-91.7 c -28.1,-36.3 -72,-58.3 -118.7,-58.3"
         style="fill:#371a45;fill-opacity:1;fill-rule:nonzero;stroke:none"
         id="path338" />
      <path
         d="m 15856.1,15688.1 c -98.4,25.8 -199.2,59.5 -302.8,102.4 l 308.5,-91.9 c -2,-3.4 -3.9,-6.9 -5.7,-10.5"
         style="fill:#371a45;fill-opacity:1;fill-rule:nonzero;stroke:none"
         id="path340" />
      <path
         d="m 16012.8,15653.4 c -51.4,9.3 -103.8,20.9 -156.7,34.7 1.8,3.6 3.7,7.1 5.7,10.5 l 150.7,-44.8 0.3,-0.4"
         style="fill:#371a45;fill-opacity:1;fill-rule:nonzero;stroke:none"
         id="path342" />
      <path
         d="m 17905.7,12194.4 c -34.1,0 -68.7,1.3 -103.6,3.9 312,594.9 538.3,1265.1 702.4,1920.7 262.7,-115.7 542.5,-160.5 797,-169.5 34.7,-1.3 68.8,-1.8 102.4,-1.8 49.6,0 97.9,1.2 144.5,3.5 -77.7,-286.7 -314,-1012.5 -804.3,-1436.3 -247.5,-213.3 -527.4,-320.5 -838.4,-320.5"
         style="fill:#cdc6d0;fill-opacity:1;fill-rule:nonzero;stroke:none"
         id="path344" />
      <path
         d="m 17906.6,12193.8 c -34.6,0 -69.4,1.4 -104.7,4 0.1,0.2 0.2,0.3 0.2,0.5 34.9,-2.6 69.5,-3.9 103.6,-3.9 311,0 590.9,107.2 838.4,320.5 -52.5,-45.4 -107.8,-87.3 -166.2,-124.8 -203.4,-130.7 -428.2,-196.3 -671.3,-196.3"
         style="fill:#371a45;fill-opacity:1;fill-rule:nonzero;stroke:none"
         id="path346" />
      <path
         d="m 17909.6,12018.6 c -64.1,0 -130.3,4.1 -198.5,12.5 31,54.8 61.3,110.5 90.8,166.7 35.3,-2.6 70.1,-4 104.7,-4 243.1,0 467.9,65.6 671.3,196.3 58.4,37.5 113.7,79.4 166.2,124.8 490.3,423.8 726.6,1149.6 804.3,1436.3 55.3,2.6 108.2,6.6 158.3,11.5 8.9,0.8 17.8,1.8 26.6,3 -89.6,-359.6 -557,-1947.1 -1823.7,-1947.1"
         style="fill:#371a45;fill-opacity:1;fill-rule:nonzero;stroke:none"
         id="path348" />
      <path
         d="m 19301.5,13949.5 c -254.5,9 -534.3,53.8 -797,169.5 0.1,0.1 0,-0.1 0.1,0.1 262.6,-115.6 542.5,-160.5 796.9,-169.6"
         style="fill:#371a45;fill-opacity:1;fill-rule:nonzero;stroke:none"
         id="path350" />
      <path
         d="m 17711.1,12031.1 c -36.3,4.6 -73.1,10.3 -110.6,17.4 -21.4,16.5 -40.2,31.8 -56,45.3 362.8,635.1 617.7,1380.9 796.8,2108.1 53.4,-31 107.9,-58.5 163.3,-82.8 -0.1,-0.2 0,0 -0.1,-0.1 -164.1,-655.6 -390.4,-1325.8 -702.4,-1920.7 0,-0.2 -0.1,-0.3 -0.2,-0.5 -29.5,-56.2 -59.8,-111.9 -90.8,-166.7"
         style="fill:#371a45;fill-opacity:1;fill-rule:nonzero;stroke:none"
         id="path352" />
      <path
         d="m 19400.9,14297.6 c -28.6,0 -57.6,0.4 -87,1.5 -236.4,8.3 -495.4,52 -727.5,168.1 60.8,275.3 111,544.9 152.5,802.2 222.5,173.1 353.1,456.8 337.9,746.3 -9.1,174.6 -74.8,324.9 -181.5,424.9 l 157.3,970.1 85.7,3.4 c 0.9,0 1.8,0 2.7,0.1 l 5.4,0.2 c 24.7,-302.2 91,-934.4 240.1,-1405.4 51.9,-163.4 162.1,-224.3 297.6,-224.3 138.5,0 303.4,63.6 459.4,146.3 106.7,56.6 209.2,122.2 296.2,182.5 -126.6,-490.9 -276.5,-1065.9 -375.8,-1446.9 -2.2,-8.8 -4.5,-17.5 -6.8,-26.1 -0.4,-1.8 -0.9,-3.6 -1.4,-5.4 -6.1,-21.9 -13.7,-43.1 -22.8,-63.4 -50.9,-114 -147.8,-201.5 -264.9,-240.5 -11.6,-3.8 -23.4,-7.2 -35.4,-10 -18.1,-4.4 -38.6,-7.8 -59.7,-10 -83.1,-8.2 -175,-13.6 -272,-13.6"
         style="fill:#cdc6d0;fill-opacity:1;fill-rule:nonzero;stroke:none"
         id="path354" />
      <path
         d="m 19402.2,14297.5 c -29,0 -58.5,0.5 -88.3,1.6 29.4,-1.1 58.4,-1.5 87,-1.5 97,0 188.9,5.4 272,13.6 21.1,2.2 41.6,5.6 59.7,10 12,2.8 23.8,6.2 35.4,10 -30.5,-10.1 -62.4,-17 -95.1,-20.2 -82.8,-8.1 -174.2,-13.5 -270.7,-13.5 m 630.7,274.2 c 9.1,20.3 16.7,41.5 22.8,63.4 -6,-21.9 -13.7,-43.1 -22.8,-63.4 m 31,94.9 c 99.3,381 249.2,956 375.8,1446.9 0.1,0 0.2,0.1 0.3,0.2 -125.4,-486 -274.2,-1057 -376.1,-1447.1 m -1168.6,1774 c -3.3,3 -6.5,6 -9.8,8.9 37.1,420.9 47.9,727 50.9,847.4 24,37.7 47,75 69.3,112.2 l 140.7,5.6 c 0,-0.1 0,-0.2 0,-0.3 l -5.4,-0.2 c -0.9,-0.1 -1.8,-0.1 -2.7,-0.1 l -85.7,-3.4 -157.3,-970.1"
         style="fill:#371a45;fill-opacity:1;fill-rule:nonzero;stroke:none"
         id="path356" />
      <path
         d="m 18586.4,14467.2 c -37.1,18.6 -73.6,39 -109.2,61.5 -17.4,11 -36.1,18.6 -55.1,22.8 23,106.1 44.4,211.4 64.4,315.3 l 1,4.2 c 0,0 0,0.1 -0.1,0.4 16.9,87.8 32.7,174.7 47.6,260.4 5.8,13.7 12.2,27.8 19.4,42.4 28.4,9.6 56.2,19.7 83.4,30.4 9.7,3.7 19,8.4 27.8,13.8 25.4,15.7 49.9,32.7 73.3,51 -41.5,-257.3 -91.7,-526.9 -152.5,-802.2 m 299.1,1982.3 c -26.1,23.2 -54.5,43.4 -85,60.4 l -6.5,397.6 -2.7,164.7 c 40,60 79.8,121.6 119.5,184.8 29,46.3 33.7,101 17.5,149 l 77.4,3.1 c -22.3,-37.2 -45.3,-74.5 -69.3,-112.2 -3,-120.4 -13.8,-426.5 -50.9,-847.4"
         style="fill:#371a45;fill-opacity:1;fill-rule:nonzero;stroke:none"
         id="path358" />
      <path
         d="m 18554.4,15174.2 c 31.3,64.2 76.1,137.7 139.6,219.8 72.6,93.9 112.7,219.3 132.8,350.9 62,140.5 77.6,304 11.1,421 -12,163.3 -36.4,282.1 -36.4,282.1 l -1,61.9 c 30.5,-17 58.9,-37.2 85,-60.4 3.3,-2.9 6.5,-5.9 9.8,-8.9 106.7,-100 172.4,-250.3 181.5,-424.9 15.2,-289.5 -115.4,-573.2 -337.9,-746.3 -23.4,-18.3 -47.9,-35.3 -73.3,-51 -8.8,-5.4 -18.1,-10.1 -27.8,-13.8 -27.2,-10.7 -55,-20.8 -83.4,-30.4"
         style="fill:#371a45;fill-opacity:1;fill-rule:nonzero;stroke:none"
         id="path360" />
      <path
         d="m 18791.3,17072.2 -4.4,263 c 14.5,25.3 28.8,51.2 42.8,77.7 l 7.7,4.5 c 19.9,-7.9 41.5,-12.3 64,-12.3 2.8,0 5.7,0 8.5,0.2 l 18.4,0.7 c 16.2,-48 11.5,-102.7 -17.5,-149 -39.7,-63.2 -79.5,-124.8 -119.5,-184.8"
         style="fill:#371a45;fill-opacity:1;fill-rule:nonzero;stroke:none"
         id="path362" />
      <path
         d="m 19403.9,13947.7 c -33.6,0 -67.7,0.5 -102.4,1.8 -254.4,9.1 -534.3,54 -796.9,169.6 -55.4,24.3 -109.9,51.8 -163.3,82.8 28.8,117.2 55.7,233.9 80.8,349.6 19,-4.2 37.7,-11.8 55.1,-22.8 35.6,-22.5 72.1,-42.9 109.2,-61.5 232.1,-116.1 491.1,-159.8 727.5,-168.1 29.8,-1.1 59.3,-1.6 88.3,-1.6 96.5,0 187.9,5.4 270.7,13.5 32.7,3.2 64.6,10.1 95.1,20.2 117.1,39 214,126.5 264.9,240.5 9.1,20.3 16.8,41.5 22.8,63.4 0.5,1.8 1,3.6 1.4,5.4 2.3,8.6 4.6,17.3 6.8,26.1 101.9,390.1 250.7,961.1 376.1,1447.1 101.9,70.7 182.5,134.1 223.5,167.3 -138.5,-539.5 -324,-1251 -437,-1684.5 -58.5,-223 -233.5,-393 -453,-445.5 l -23.5,-113.5 c 0,0 -5.3,-25.9 -16.7,-71.8 -8.8,-1.2 -17.7,-2.2 -26.6,-3 -50.1,-4.9 -103,-8.9 -158.3,-11.5 -46.6,-2.3 -94.9,-3.5 -144.5,-3.5 m -502.5,3457.4 c -22.5,0 -44.1,4.4 -64,12.3 l 43.1,25.1 253,146.5 0.5,0.5 v -0.5 c 0.4,-6.6 4,-71.2 12.4,-174.3 l -140.7,-5.6 -77.4,-3.1 -18.4,-0.7 c -2.8,-0.2 -5.7,-0.2 -8.5,-0.2"
         style="fill:#371a45;fill-opacity:1;fill-rule:nonzero;stroke:none"
         id="path364" />
      <path
         d="m 18786.9,17335.2 -0.9,51.1 c 0.2,0.2 0.3,0.5 0.5,0.7 l -0.5,0.5 43.7,25.4 c -14,-26.5 -28.3,-52.4 -42.8,-77.7"
         style="fill:#371a45;fill-opacity:1;fill-rule:nonzero;stroke:none"
         id="path366" />
      <path
         d="m 17544.5,12093.8 c -25.5,21.9 -43.4,38.9 -53,48.2 -5.5,5 -8,8 -8,8 l 2,5 781,1770 65.8,282.1 c 3,-1.7 6,-3.5 9,-5.2 -179.1,-727.2 -434,-1473 -796.8,-2108.1 m 877.6,2457.7 c -3,0.7 -6,1.3 -9,1.8 l 73.4,313.5 c -20,-103.9 -41.4,-209.2 -64.4,-315.3 m 65.3,319.9 c -1.6,6.8 -21.4,98.7 47.6,260.4 -14.9,-85.7 -30.7,-172.6 -47.6,-260.4"
         style="fill:#371a45;fill-opacity:1;fill-rule:nonzero;stroke:none"
         id="path368" />
      <path
         d="m 18826.8,15744.9 c 22.1,144.2 20.3,295.7 11.1,421 66.5,-117 50.9,-280.5 -11.1,-421"
         style="fill:#371a45;fill-opacity:1;fill-rule:nonzero;stroke:none"
         id="path370" />
      <path
         d="m 18341.3,14201.9 c -3,1.7 -6,3.5 -9,5.2 l 76.7,328.9 4.1,17.3 c 3,-0.5 6,-1.1 9,-1.8 -25.1,-115.7 -52,-232.4 -80.8,-349.6"
         style="fill:#371a45;fill-opacity:1;fill-rule:nonzero;stroke:none"
         id="path372" />
      <path
         d="m 18786,17386.3 v 1.2 l 0.5,-0.5 c -0.2,-0.2 -0.3,-0.5 -0.5,-0.7"
         style="fill:#371a45;fill-opacity:1;fill-rule:nonzero;stroke:none"
         id="path374" />
    </g>
  </g>
</svg>
